<?xml version="1.0" encoding="utf-8"?>
<!-- Generator: Adobe Illustrator 16.0.0, SVG Export Plug-In . SVG Version: 6.00 Build 0)  -->
<!DOCTYPE svg PUBLIC "-//W3C//DTD SVG 1.1//EN" "http://www.w3.org/Graphics/SVG/1.1/DTD/svg11.dtd">
<svg version="1.1" id="Layer_1" xmlns="http://www.w3.org/2000/svg" xmlns:xlink="http://www.w3.org/1999/xlink" x="0px" y="0px"
	 width="612px" height="792px" viewBox="0 0 612 792" enable-background="new 0 0 612 792" xml:space="preserve">
<g>
	<g>
		<path fill="#E8A922" d="M592.194,302.375c0,0-7.447-16.048-26.863-24.048c3.998-0.516-12.317-12.105-34.892-11.132
			c-26.188-8.628-45.364,5.102-53.116,9.479c-7.752,4.376-22.683,2.551-33.263,11.169c0,0-8.077-0.084-11.449,2.852
			c-3.401-3.563-59.073,1.618-60.597,5.316c0.596,5.113,9.688-20.885-4.16-1.715c-4.924,0.136,1.688-19.718,1.095-24.965
			c-3.399-3.563-6.45,13.026-7.049,17.105c-5.193-0.519-3.83-15.64-7.882-28.124c7.695,1.009-7.478-4.162-5.572,0.407
			c1.9,4.569,5.514,14.171,5.675,25.594c2.394,2.068-13.917-18.715-22.54-20.104c-3.454,1.821-3.726,1.168-5.792,3.561
			c9.816,2.423,19.258,11.918,19.9,14.691c-6.717,3.181-5.383-0.055-4.133,4.786c6.147-1.793,12.701,1.988,15.662,11.861
			c13.485,15.832,53.657,1.018,62.062,5.563c-37.412,26.416-69.087,116.783-66.618,122.07c0.006,0.922,0.115,1.61,0.338,2.039
			c-6.188-17.834,1.229-29.236-34.07-27.56c0,0,4.924-9.326,11.752-14.083c2.113-1.867,1.58-9.084-10.798,2.581
			c-0.731-10.036,9.146-22.191,8.086-27.495c1.74-6.852-8.733,9.381-11.371,13.161c-2.641,3.78,7.32-25.231,9.635-33.884
			c-10.607,2.118-13.771,38.669-16.953,41.143c-3.562-5.793-5.618-49.362-10.158-59.344c-3.888-1.062-3.207-4.026-3.888-1.062
			c0,0,12.388,59.183,3.763,76.178c-4.106-7.1-23.278-11.753-29.245-14.754c-7.577,1.746-3.931-0.538-4.612,2.427
			c-0.681,2.964,18.286,2.773,29.096,14.693c7.479,4.162,9.16,21.08,37.039,19.047c2.251,3.158,5.191,48.301,6.05,52.246
			c-17.301,30.186-80.946,159.705-263.485,277.789c-14.397,14.092,1.404,13.094,3.392,10.893c0,0,134.942-83.379,181.652-137.678
			c15.884-9.68,94.943-121.492,111.562-130.326c-8.945-5.85,23.79,24.943,21.312,30.953c-2.476,6.012-25.188,20.449-13.605,40.902
			c-8.134,14.492-12.572,21.317-19.51,27.651c2.611,8.105,22.118-19.549,23.018-25.666c8.05,2.773,12.673,4.681,16.616,9.55
			c4.317,22.327,1.734,53.752,3.493,57.139c3.977-8.01,5.475-35.599-0.066-65.459c1.906-4.625,26.129,23.201,37.363,23.508
			c1.797-3.047-14.258-12.682-30.454-27.15c0,0,15.526,6.938,21.048,2.726c5.521-4.217-16.588-3.054-26.812-11.049
			c-10.009-1.962,11.773,1.608,11.749-4.894c-11.999-1.383-21.117-1.246-21.117-1.246c-2.896-2.16,12.394-16.951,16.717-22.199
			c6.884-10.141-16.58-39.817-19.761-46.538c3.053-25.779,24.517-45.058,26.726-70.104c-1.274-11.342,30.963-67.278,31.617-58.357
			c-4.329,14.441,7.346,14.422,16.53,8.436c0,0,14.634-5.328,17.025-3.26c2.395,2.068-0.786-4.651,0.14-4.27
			c0.926,0.381-11.615,0.624-13.109,1.629c0.656-9.464,24.751-14.137,27.637-23.763c3.645-2.284-18.915,6.965-24.262,11.634
			c-4.626,7.288,9.25-14.575,14.826-14.981c0.682-2.964-13.872,3.478-16.892,8.182c-3.021,4.705-1.955-17.569,41.666-6.625
			c26.243,3.242,30.543,0.688,39.382-1.079C577.861,314.855,592.871,317.796,592.194,302.375z"/>
	</g>
	<g>
		<path fill="#E8A922" stroke="#E7C21F" stroke-miterlimit="10" d="M592.194,302.375c0,0-7.447-16.048-26.863-24.048
			c3.998-0.516-12.317-12.105-34.892-11.132c-26.188-8.628-45.364,5.102-53.116,9.479c-7.752,4.376-22.683,2.551-33.263,11.169
			c0,0-8.077-0.084-11.449,2.852c-3.401-3.563-59.073,1.618-60.597,5.316c0.596,5.113,9.688-20.885-4.16-1.715
			c-4.924,0.136,1.688-19.718,1.095-24.965c-3.399-3.563-6.45,13.026-7.049,17.105c-5.193-0.519-3.83-15.64-7.882-28.124
			c7.695,1.009-7.478-4.162-5.572,0.407c1.9,4.569,5.514,14.171,5.675,25.594c2.394,2.068-13.917-18.715-22.54-20.104
			c-3.454,1.821-3.726,1.168-5.792,3.561c9.816,2.423,19.258,11.918,19.9,14.691c-6.717,3.181-5.383-0.055-4.133,4.786
			c6.147-1.793,12.701,1.988,15.662,11.861c13.485,15.832,53.657,1.018,62.062,5.563c-37.412,26.416-69.087,116.783-66.618,122.07
			c0.006,0.922,0.115,1.61,0.338,2.039c-6.188-17.834,1.229-29.236-34.07-27.56c0,0,4.924-9.326,11.752-14.083
			c2.113-1.867,1.58-9.084-10.798,2.581c-0.731-10.036,9.146-22.191,8.086-27.495c1.74-6.852-8.733,9.381-11.371,13.161
			c-2.641,3.78,7.32-25.231,9.635-33.884c-10.607,2.118-13.771,38.669-16.953,41.143c-3.562-5.793-5.618-49.362-10.158-59.344
			c-3.888-1.062-3.207-4.026-3.888-1.062c0,0,12.388,59.183,3.763,76.178c-4.106-7.1-23.278-11.753-29.245-14.754
			c-7.577,1.746-3.931-0.538-4.612,2.427c-0.681,2.964,18.286,2.773,29.096,14.693c7.479,4.162,9.16,21.08,37.039,19.047
			c2.251,3.158,5.191,48.301,6.05,52.246c-17.301,30.186-80.946,159.705-263.485,277.789c-14.397,14.092,1.404,13.094,3.392,10.893
			c0,0,134.942-83.379,181.652-137.678c15.884-9.68,94.943-121.492,111.562-130.326c-8.945-5.85,23.79,24.943,21.312,30.953
			c-2.476,6.012-25.188,20.449-13.605,40.902c-8.134,14.492-12.572,21.317-19.51,27.651c2.611,8.105,22.118-19.549,23.018-25.666
			c8.05,2.773,12.673,4.681,16.616,9.55c4.317,22.327,1.734,53.752,3.493,57.139c3.977-8.01,5.475-35.599-0.066-65.459
			c1.906-4.625,26.129,23.201,37.363,23.508c1.797-3.047-14.258-12.682-30.454-27.15c0,0,15.526,6.938,21.048,2.726
			c5.521-4.217-16.588-3.054-26.812-11.049c-10.009-1.962,11.773,1.608,11.749-4.894c-11.999-1.383-21.117-1.246-21.117-1.246
			c-2.896-2.16,12.394-16.951,16.717-22.199c6.884-10.141-16.58-39.817-19.761-46.538c3.053-25.779,24.517-45.058,26.726-70.104
			c-1.274-11.342,30.963-67.278,31.617-58.357c-4.329,14.441,7.346,14.422,16.53,8.436c0,0,14.634-5.328,17.025-3.26
			c2.395,2.068-0.786-4.651,0.14-4.27c0.926,0.381-11.615,0.624-13.109,1.629c0.656-9.464,24.751-14.137,27.637-23.763
			c3.645-2.284-18.915,6.965-24.262,11.634c-4.626,7.288,9.25-14.575,14.826-14.981c0.682-2.964-13.872,3.478-16.892,8.182
			c-3.021,4.705-1.955-17.569,41.666-6.625c26.243,3.242,30.543,0.688,39.382-1.079
			C577.861,314.855,592.871,317.796,592.194,302.375z"/>
	</g>
	<g>
		<path fill="none" stroke="#E7C21F" stroke-miterlimit="10" d="M592.194,302.375c0,0-7.447-16.048-26.863-24.048
			c3.998-0.516-12.317-12.105-34.892-11.132c-26.188-8.628-45.364,5.102-53.116,9.479c-7.752,4.376-22.683,2.551-33.263,11.169
			c0,0-8.077-0.084-11.449,2.852c-3.401-3.563-59.073,1.618-60.597,5.316c0.596,5.113,9.688-20.885-4.16-1.715
			c-4.924,0.136,1.688-19.718,1.095-24.965c-3.399-3.563-6.45,13.026-7.049,17.105c-5.193-0.519-3.83-15.64-7.882-28.124
			c7.695,1.009-7.478-4.162-5.572,0.407c1.9,4.569,5.514,14.171,5.675,25.594c2.394,2.068-13.917-18.715-22.54-20.104
			c-3.454,1.821-3.726,1.168-5.792,3.561c9.816,2.423,19.258,11.918,19.9,14.691c-6.717,3.181-5.383-0.055-4.133,4.786
			c6.147-1.793,12.701,1.988,15.662,11.861c13.485,15.832,53.657,1.018,62.062,5.563c-37.412,26.416-69.087,116.783-66.618,122.07
			c0.006,0.922,0.115,1.61,0.338,2.039c-6.188-17.834,1.229-29.236-34.07-27.56c0,0,4.924-9.326,11.752-14.083
			c2.113-1.867,1.58-9.084-10.798,2.581c-0.731-10.036,9.146-22.191,8.086-27.495c1.74-6.852-8.733,9.381-11.371,13.161
			c-2.641,3.78,7.32-25.231,9.635-33.884c-10.607,2.118-13.771,38.669-16.953,41.143c-3.562-5.793-5.618-49.362-10.158-59.344
			c-3.888-1.062-3.207-4.026-3.888-1.062c0,0,12.388,59.183,3.763,76.178c-4.106-7.1-23.278-11.753-29.245-14.754
			c-7.577,1.746-3.931-0.538-4.612,2.427c-0.681,2.964,18.286,2.773,29.096,14.693c7.479,4.162,9.16,21.08,37.039,19.047
			c2.251,3.158,5.191,48.301,6.05,52.246c-17.301,30.186-80.946,159.705-263.485,277.789c-14.397,14.092,1.404,13.094,3.392,10.893
			c0,0,134.942-83.379,181.652-137.678c15.884-9.68,94.943-121.492,111.562-130.326c-8.945-5.85,23.79,24.943,21.312,30.953
			c-2.476,6.012-25.188,20.449-13.605,40.902c-8.134,14.492-12.572,21.317-19.51,27.651c2.611,8.105,22.118-19.549,23.018-25.666
			c8.05,2.773,12.673,4.681,16.616,9.55c4.317,22.327,1.734,53.752,3.493,57.139c3.977-8.01,5.475-35.599-0.066-65.459
			c1.906-4.625,26.129,23.201,37.363,23.508c1.797-3.047-14.258-12.682-30.454-27.15c0,0,15.526,6.938,21.048,2.726
			c5.521-4.217-16.588-3.054-26.812-11.049c-10.009-1.962,11.773,1.608,11.749-4.894c-11.999-1.383-21.117-1.246-21.117-1.246
			c-2.896-2.16,12.394-16.951,16.717-22.199c6.884-10.141-16.58-39.817-19.761-46.538c3.053-25.779,24.517-45.058,26.726-70.104
			c-1.274-11.342,30.963-67.278,31.617-58.357c-4.329,14.441,7.346,14.422,16.53,8.436c0,0,14.634-5.328,17.025-3.26
			c2.395,2.068-0.786-4.651,0.14-4.27c0.926,0.381-11.615,0.624-13.109,1.629c0.656-9.464,24.751-14.137,27.637-23.763
			c3.645-2.284-18.915,6.965-24.262,11.634c-4.626,7.288,9.25-14.575,14.826-14.981c0.682-2.964-13.872,3.478-16.892,8.182
			c-3.021,4.705-1.955-17.569,41.666-6.625c26.243,3.242,30.543,0.688,39.382-1.079
			C577.861,314.855,592.871,317.796,592.194,302.375z"/>
	</g>
</g>
<g>
	<g>
		<path fill="#E8A922" d="M580.093,579.533c0,0-3.208-5.529-10.456-7.77c1.421-0.316-4.831-3.949-12.921-2.855
			c-9.706-2.242-16.153,3.328-18.8,5.159c-2.645,1.829-8.076,1.664-11.6,5.112c0,0-2.91,0.235-4.026,1.403
			c-1.341-1.171-21.2,2.526-21.628,3.907c0.383,1.819,2.799-7.833-1.553-0.48c-1.768,0.211-0.043-7.149-0.429-9.019
			c-1.341-1.17-1.893,4.898-1.974,6.387c-1.886-0.016-1.894-5.501-3.761-9.858c2.802,0.108-2.828-1.253-1.992,0.329
			c0.834,1.581,2.451,4.917,2.885,9.021c0.929,0.665-5.624-6.275-8.771-6.491c-1.185,0.77-1.304,0.543-1.969,1.472
			c3.612,0.55,7.321,3.654,7.646,4.632c-2.312,1.364-1.939,0.156-1.331,1.856c2.153-0.848,4.636,0.298,6.026,3.753
			c5.373,5.252,19.34-1.399,22.512-0.042c-12.592,10.736-21.014,44.293-19.951,46.114c0.033,0.332,0.096,0.575,0.189,0.723
			c-2.813-6.214-0.521-10.56-13.166-8.794c0,0,1.465-3.519,3.765-5.455c0.698-0.741,0.271-3.319-3.8,1.284
			c-0.594-3.587,2.56-8.285,2.004-10.158c0.4-2.522-2.834,3.662-3.658,5.109c-0.825,1.446,1.803-9.319,2.353-12.509
			c-3.747,1.11-3.683,14.366-4.746,15.36c-1.473-1.967-3.646-17.575-5.607-21.018c-1.435-0.254-1.287-1.343-1.435-0.254
			c0,0,6.404,20.886,3.86,27.285c-1.711-2.42-8.763-3.463-11.008-4.348c-2.669,0.878-1.433-0.062-1.579,1.025
			c-0.147,1.089,6.67,0.396,10.952,4.328c2.827,1.252,3.989,7.283,13.953,5.634c0.913,1.062,3.458,17.208,3.897,18.6
			c-5.232,11.431-23.869,60.125-85.659,108.621c-4.716,5.545,0.937,4.666,1.579,3.81c0,0,45.808-34.443,60.825-55.519
			c5.396-4.004,30.162-46.837,35.853-50.562c-3.412-1.812,9.38,8.19,8.688,10.435s-8.391,8.188-3.551,15.165
			c-2.449,5.482-3.82,8.084-6.106,10.592c1.204,2.83,7.312-7.762,7.436-9.992c2.988,0.733,4.714,1.268,6.293,2.889
			c2.289,7.892,2.395,19.282,3.138,20.444c1.167-3.015,0.799-12.988-2.179-23.552c0.533-1.727,10.166,7.488,14.217,7.229
			c0.547-1.155-5.547-4.093-11.852-8.768c0,0,5.815,1.986,7.664,0.288c1.848-1.697-6.069-0.552-10.013-3.093
			c-3.663-0.376,4.291,0.191,4.067-2.146c-4.362-0.104-7.64,0.246-7.64,0.246c-1.112-0.683,3.899-6.508,5.285-8.537
			c2.143-3.876-7.277-13.781-8.644-16.096c0.25-9.376,7.338-17.019,7.308-26.104c-0.831-4.038,8.928-25.225,9.456-22.037
			c-1.081,5.338,3.117,4.947,6.226,2.491c0,0,5.09-2.398,6.02-1.733s-0.437-1.646-0.092-1.541c0.346,0.106-4.158,0.606-4.662,1.019
			c-0.076-3.428,8.439-5.901,9.162-9.46c1.235-0.941-6.577,3.129-8.348,4.984c-1.424,2.773,2.849-5.549,4.842-5.879
			c0.146-1.089-4.877,1.708-5.809,3.5c-0.933,1.792-1.281-6.257,14.772-3.756c9.549,0.303,11.012-0.758,14.135-1.684
			C575.347,584.495,580.844,585.059,580.093,579.533z"/>
	</g>
	<g>
		<path fill="#E8A922" stroke="#E7C21F" stroke-miterlimit="10" d="M580.093,579.533c0,0-3.208-5.529-10.456-7.77
			c1.421-0.316-4.831-3.949-12.921-2.855c-9.706-2.242-16.153,3.328-18.8,5.159c-2.645,1.829-8.076,1.664-11.6,5.112
			c0,0-2.91,0.235-4.026,1.403c-1.341-1.171-21.2,2.526-21.628,3.907c0.383,1.819,2.799-7.833-1.553-0.48
			c-1.768,0.211-0.043-7.149-0.429-9.019c-1.341-1.17-1.893,4.898-1.974,6.387c-1.886-0.016-1.894-5.501-3.761-9.858
			c2.802,0.108-2.828-1.253-1.992,0.329c0.834,1.581,2.451,4.917,2.885,9.021c0.929,0.665-5.624-6.275-8.771-6.491
			c-1.185,0.77-1.304,0.543-1.969,1.472c3.612,0.55,7.321,3.654,7.646,4.632c-2.312,1.364-1.939,0.156-1.331,1.856
			c2.153-0.848,4.636,0.298,6.026,3.753c5.373,5.252,19.34-1.399,22.512-0.042c-12.592,10.736-21.014,44.293-19.951,46.114
			c0.033,0.332,0.096,0.575,0.189,0.723c-2.813-6.214-0.521-10.56-13.166-8.794c0,0,1.465-3.519,3.765-5.455
			c0.698-0.741,0.271-3.319-3.8,1.284c-0.594-3.587,2.56-8.285,2.004-10.158c0.4-2.522-2.834,3.662-3.658,5.109
			c-0.825,1.446,1.803-9.319,2.353-12.509c-3.747,1.11-3.683,14.366-4.746,15.36c-1.473-1.967-3.646-17.575-5.607-21.018
			c-1.435-0.254-1.287-1.343-1.435-0.254c0,0,6.404,20.886,3.86,27.285c-1.711-2.42-8.763-3.463-11.008-4.348
			c-2.669,0.878-1.433-0.062-1.579,1.025c-0.147,1.089,6.67,0.396,10.952,4.328c2.827,1.252,3.989,7.283,13.953,5.634
			c0.913,1.062,3.458,17.208,3.897,18.6c-5.232,11.431-23.869,60.125-85.659,108.621c-4.716,5.545,0.937,4.666,1.579,3.81
			c0,0,45.808-34.443,60.825-55.519c5.396-4.004,30.162-46.837,35.853-50.562c-3.412-1.812,9.38,8.19,8.688,10.435
			s-8.391,8.188-3.551,15.165c-2.449,5.482-3.82,8.084-6.106,10.592c1.204,2.83,7.312-7.762,7.436-9.992
			c2.988,0.733,4.714,1.268,6.293,2.889c2.289,7.892,2.395,19.282,3.138,20.444c1.167-3.015,0.799-12.988-2.179-23.552
			c0.533-1.727,10.166,7.488,14.217,7.229c0.547-1.155-5.547-4.093-11.852-8.768c0,0,5.815,1.986,7.664,0.288
			c1.848-1.697-6.069-0.552-10.013-3.093c-3.663-0.376,4.291,0.191,4.067-2.146c-4.362-0.104-7.64,0.246-7.64,0.246
			c-1.112-0.683,3.899-6.508,5.285-8.537c2.143-3.876-7.277-13.781-8.644-16.096c0.25-9.376,7.338-17.019,7.308-26.104
			c-0.831-4.038,8.928-25.225,9.456-22.037c-1.081,5.338,3.117,4.947,6.226,2.491c0,0,5.09-2.398,6.02-1.733
			s-0.437-1.646-0.092-1.541c0.346,0.106-4.158,0.606-4.662,1.019c-0.076-3.428,8.439-5.901,9.162-9.46
			c1.235-0.941-6.577,3.129-8.348,4.984c-1.424,2.773,2.849-5.549,4.842-5.879c0.146-1.089-4.877,1.708-5.809,3.5
			c-0.933,1.792-1.281-6.257,14.772-3.756c9.549,0.303,11.012-0.758,14.135-1.684C575.347,584.495,580.844,585.059,580.093,579.533z
			"/>
	</g>
	<g>
		<path fill="none" stroke="#E7C21F" stroke-miterlimit="10" d="M580.093,579.533c0,0-3.208-5.529-10.456-7.77
			c1.421-0.316-4.831-3.949-12.921-2.855c-9.706-2.242-16.153,3.328-18.8,5.159c-2.645,1.829-8.076,1.664-11.6,5.112
			c0,0-2.91,0.235-4.026,1.403c-1.341-1.171-21.2,2.526-21.628,3.907c0.383,1.819,2.799-7.833-1.553-0.48
			c-1.768,0.211-0.043-7.149-0.429-9.019c-1.341-1.17-1.893,4.898-1.974,6.387c-1.886-0.016-1.894-5.501-3.761-9.858
			c2.802,0.108-2.828-1.253-1.992,0.329c0.834,1.581,2.451,4.917,2.885,9.021c0.929,0.665-5.624-6.275-8.771-6.491
			c-1.185,0.77-1.304,0.543-1.969,1.472c3.612,0.55,7.321,3.654,7.646,4.632c-2.312,1.364-1.939,0.156-1.331,1.856
			c2.153-0.848,4.636,0.298,6.026,3.753c5.373,5.252,19.34-1.399,22.512-0.042c-12.592,10.736-21.014,44.293-19.951,46.114
			c0.033,0.332,0.096,0.575,0.189,0.723c-2.813-6.214-0.521-10.56-13.166-8.794c0,0,1.465-3.519,3.765-5.455
			c0.698-0.741,0.271-3.319-3.8,1.284c-0.594-3.587,2.56-8.285,2.004-10.158c0.4-2.522-2.834,3.662-3.658,5.109
			c-0.825,1.446,1.803-9.319,2.353-12.509c-3.747,1.11-3.683,14.366-4.746,15.36c-1.473-1.967-3.646-17.575-5.607-21.018
			c-1.435-0.254-1.287-1.343-1.435-0.254c0,0,6.404,20.886,3.86,27.285c-1.711-2.42-8.763-3.463-11.008-4.348
			c-2.669,0.878-1.433-0.062-1.579,1.025c-0.147,1.089,6.67,0.396,10.952,4.328c2.827,1.252,3.989,7.283,13.953,5.634
			c0.913,1.062,3.458,17.208,3.897,18.6c-5.232,11.431-23.869,60.125-85.659,108.621c-4.716,5.545,0.937,4.666,1.579,3.81
			c0,0,45.808-34.443,60.825-55.519c5.396-4.004,30.162-46.837,35.853-50.562c-3.412-1.812,9.38,8.19,8.688,10.435
			s-8.391,8.188-3.551,15.165c-2.449,5.482-3.82,8.084-6.106,10.592c1.204,2.83,7.312-7.762,7.436-9.992
			c2.988,0.733,4.714,1.268,6.293,2.889c2.289,7.892,2.395,19.282,3.138,20.444c1.167-3.015,0.799-12.988-2.179-23.552
			c0.533-1.727,10.166,7.488,14.217,7.229c0.547-1.155-5.547-4.093-11.852-8.768c0,0,5.815,1.986,7.664,0.288
			c1.848-1.697-6.069-0.552-10.013-3.093c-3.663-0.376,4.291,0.191,4.067-2.146c-4.362-0.104-7.64,0.246-7.64,0.246
			c-1.112-0.683,3.899-6.508,5.285-8.537c2.143-3.876-7.277-13.781-8.644-16.096c0.25-9.376,7.338-17.019,7.308-26.104
			c-0.831-4.038,8.928-25.225,9.456-22.037c-1.081,5.338,3.117,4.947,6.226,2.491c0,0,5.09-2.398,6.02-1.733
			s-0.437-1.646-0.092-1.541c0.346,0.106-4.158,0.606-4.662,1.019c-0.076-3.428,8.439-5.901,9.162-9.46
			c1.235-0.941-6.577,3.129-8.348,4.984c-1.424,2.773,2.849-5.549,4.842-5.879c0.146-1.089-4.877,1.708-5.809,3.5
			c-0.933,1.792-1.281-6.257,14.772-3.756c9.549,0.303,11.012-0.758,14.135-1.684C575.347,584.495,580.844,585.059,580.093,579.533z
			"/>
	</g>
</g>
<g>
	<g>
		<path fill="#E8A922" d="M55.812,599.396c0,0,2.976,5.657,10.124,8.195c-1.433,0.258,4.662,4.147,12.791,3.393
			c9.604,2.644,16.278-2.654,18.998-4.373c2.718-1.72,8.139-1.328,11.802-4.627c0,0,2.917-0.115,4.081-1.235
			c1.292,1.226,21.287-1.643,21.772-3.005c-0.308-1.834-3.123,7.709,1.531,0.545c1.774-0.137-0.254,7.146,0.052,9.028
			c1.292,1.225,2.095-4.817,2.238-6.3c1.884,0.094,1.663,5.575,3.348,10.008c-2.795-0.228,2.773,1.369,2.004-0.246
			c-0.768-1.615-2.245-5.017-2.507-9.135c-0.9-0.703,5.358,6.504,8.495,6.85c1.214-0.718,1.324-0.488,2.027-1.389
			c-3.586-0.697-7.164-3.955-7.446-4.943c2.367-1.27,1.945-0.076,1.407-1.801c-2.186,0.758-4.619-0.49-5.865-4
			c-5.15-5.472-19.382,0.596-22.494-0.895c13.027-10.204,22.836-43.382,21.851-45.245c-0.02-0.333-0.072-0.579-0.16-0.729
			c2.553,6.324,0.08,10.571,12.789,9.333c0,0-1.61,3.454-3.988,5.294c-0.729,0.712-0.407,3.307,3.85-1.125
			c0.444,3.608-2.902,8.171-2.424,10.065c-0.505,2.505,2.983-3.541,3.868-4.953c0.885-1.41-2.189,9.236-2.87,12.399
			c3.79-0.953,4.275-14.2,5.381-15.149c1.388,2.026,2.913,17.713,4.729,21.231c1.422,0.312,1.23,1.396,1.422,0.312
			c0,0-5.531-21.134-2.723-27.422c1.609,2.488,8.611,3.824,10.817,4.801c2.704-0.767,1.429,0.124,1.621-0.959
			c0.194-1.081-6.647-0.672-10.763-4.779c-2.772-1.368-3.683-7.442-13.707-6.208c-0.868-1.1-2.739-17.338-3.121-18.746
			c5.703-11.202,26.348-59.082,90.1-104.968c4.942-5.343-0.742-4.7-1.419-3.87c0,0-47.2,32.508-63.082,52.941
			c-5.558,3.775-32.083,45.543-37.922,49.028c3.333,1.95-9.031-8.574-8.246-10.786c0.786-2.214,8.724-7.831,4.178-15.006
			c2.675-5.376,4.153-7.917,6.543-10.328c-1.087-2.878-7.629,7.45-7.845,9.676c-2.955-0.857-4.657-1.463-6.167-3.146
			c-1.959-7.981-1.59-19.367-2.285-20.559c-1.291,2.963-1.337,12.945,1.198,23.621c-0.604,1.703-9.846-7.905-13.904-7.812
			c-0.594,1.131,5.372,4.32,11.477,9.252c0,0-5.729-2.227-7.646-0.606c-1.917,1.621,6.041,0.804,9.875,3.506
			c3.645,0.529-4.279-0.369-4.153,1.977c4.354,0.285,7.644,0.072,7.644,0.072c1.083,0.728-4.167,6.338-5.635,8.31
			c-2.302,3.783,6.698,14.071,7.966,16.439c-0.639,9.358-8.039,16.7-8.386,25.777c0.663,4.069-9.968,24.832-10.364,21.625
			c1.304-5.287-2.909-5.072-6.115-2.748c0,0-5.186,2.186-6.086,1.481c-0.901-0.703,0.367,1.664,0.027,1.543
			c-0.342-0.12,4.179-0.434,4.7-0.821c-0.066,3.426-8.678,5.545-9.547,9.069c-1.273,0.891,6.701-2.854,8.548-4.635
			c1.538-2.711-3.077,5.426-5.082,5.674c-0.192,1.082,4.943-1.504,5.949-3.256s1.02,6.305-14.917,3.139
			c-9.528-0.698-11.034,0.3-14.192,1.095C60.76,594.636,55.291,593.844,55.812,599.396z"/>
	</g>
	<g>
		<path fill="#E8A922" stroke="#E7C21F" stroke-miterlimit="10" d="M55.812,599.396c0,0,2.976,5.657,10.124,8.195
			c-1.433,0.258,4.662,4.147,12.791,3.393c9.604,2.644,16.278-2.654,18.998-4.373c2.718-1.72,8.139-1.328,11.802-4.627
			c0,0,2.917-0.115,4.081-1.235c1.292,1.226,21.287-1.643,21.772-3.005c-0.308-1.834-3.123,7.709,1.531,0.545
			c1.774-0.137-0.254,7.146,0.052,9.028c1.292,1.225,2.095-4.817,2.238-6.3c1.884,0.094,1.663,5.575,3.348,10.008
			c-2.795-0.228,2.773,1.369,2.004-0.246c-0.768-1.615-2.245-5.017-2.507-9.135c-0.9-0.703,5.358,6.504,8.495,6.85
			c1.214-0.718,1.324-0.488,2.027-1.389c-3.586-0.697-7.164-3.955-7.446-4.943c2.367-1.27,1.945-0.076,1.407-1.801
			c-2.186,0.758-4.619-0.49-5.865-4c-5.15-5.472-19.382,0.596-22.494-0.895c13.027-10.204,22.836-43.382,21.851-45.245
			c-0.02-0.333-0.072-0.579-0.16-0.729c2.553,6.324,0.08,10.571,12.789,9.333c0,0-1.61,3.454-3.988,5.294
			c-0.729,0.712-0.407,3.307,3.85-1.125c0.444,3.608-2.902,8.171-2.424,10.065c-0.505,2.505,2.983-3.541,3.868-4.953
			c0.885-1.41-2.189,9.236-2.87,12.399c3.79-0.953,4.275-14.2,5.381-15.149c1.388,2.026,2.913,17.713,4.729,21.231
			c1.422,0.312,1.23,1.396,1.422,0.312c0,0-5.531-21.134-2.723-27.422c1.609,2.488,8.611,3.824,10.817,4.801
			c2.704-0.767,1.429,0.124,1.621-0.959c0.194-1.081-6.647-0.672-10.763-4.779c-2.772-1.368-3.683-7.442-13.707-6.208
			c-0.868-1.1-2.739-17.338-3.121-18.746c5.703-11.202,26.348-59.082,90.1-104.968c4.942-5.343-0.742-4.7-1.419-3.87
			c0,0-47.2,32.508-63.082,52.941c-5.558,3.775-32.083,45.543-37.922,49.028c3.333,1.95-9.031-8.574-8.246-10.786
			c0.786-2.214,8.724-7.831,4.178-15.006c2.675-5.376,4.153-7.917,6.543-10.328c-1.087-2.878-7.629,7.45-7.845,9.676
			c-2.955-0.857-4.657-1.463-6.167-3.146c-1.959-7.981-1.59-19.367-2.285-20.559c-1.291,2.963-1.337,12.945,1.198,23.621
			c-0.604,1.703-9.846-7.905-13.904-7.812c-0.594,1.131,5.372,4.32,11.477,9.252c0,0-5.729-2.227-7.646-0.606
			c-1.917,1.621,6.041,0.804,9.875,3.506c3.645,0.529-4.279-0.369-4.153,1.977c4.354,0.285,7.644,0.072,7.644,0.072
			c1.083,0.728-4.167,6.338-5.635,8.31c-2.302,3.783,6.698,14.071,7.966,16.439c-0.639,9.358-8.039,16.7-8.386,25.777
			c0.663,4.069-9.968,24.832-10.364,21.625c1.304-5.287-2.909-5.072-6.115-2.748c0,0-5.186,2.186-6.086,1.481
			c-0.901-0.703,0.367,1.664,0.027,1.543c-0.342-0.12,4.179-0.434,4.7-0.821c-0.066,3.426-8.678,5.545-9.547,9.069
			c-1.273,0.891,6.701-2.854,8.548-4.635c1.538-2.711-3.077,5.426-5.082,5.674c-0.192,1.082,4.943-1.504,5.949-3.256
			s1.02,6.305-14.917,3.139c-9.528-0.698-11.034,0.3-14.192,1.095C60.76,594.636,55.291,593.844,55.812,599.396z"/>
	</g>
	<g>
		<path fill="none" stroke="#E7C21F" stroke-miterlimit="10" d="M55.812,599.396c0,0,2.976,5.657,10.124,8.195
			c-1.433,0.258,4.662,4.147,12.791,3.393c9.604,2.644,16.278-2.654,18.998-4.373c2.718-1.72,8.139-1.328,11.802-4.627
			c0,0,2.917-0.115,4.081-1.235c1.292,1.226,21.287-1.643,21.772-3.005c-0.308-1.834-3.123,7.709,1.531,0.545
			c1.774-0.137-0.254,7.146,0.052,9.028c1.292,1.225,2.095-4.817,2.238-6.3c1.884,0.094,1.663,5.575,3.348,10.008
			c-2.795-0.228,2.773,1.369,2.004-0.246c-0.768-1.615-2.245-5.017-2.507-9.135c-0.9-0.703,5.358,6.504,8.495,6.85
			c1.214-0.718,1.324-0.488,2.027-1.389c-3.586-0.697-7.164-3.955-7.446-4.943c2.367-1.27,1.945-0.076,1.407-1.801
			c-2.186,0.758-4.619-0.49-5.865-4c-5.15-5.472-19.382,0.596-22.494-0.895c13.027-10.204,22.836-43.382,21.851-45.245
			c-0.02-0.333-0.072-0.579-0.16-0.729c2.553,6.324,0.08,10.571,12.789,9.333c0,0-1.61,3.454-3.988,5.294
			c-0.729,0.712-0.407,3.307,3.85-1.125c0.444,3.608-2.902,8.171-2.424,10.065c-0.505,2.505,2.983-3.541,3.868-4.953
			c0.885-1.41-2.189,9.236-2.87,12.399c3.79-0.953,4.275-14.2,5.381-15.149c1.388,2.026,2.913,17.713,4.729,21.231
			c1.422,0.312,1.23,1.396,1.422,0.312c0,0-5.531-21.134-2.723-27.422c1.609,2.488,8.611,3.824,10.817,4.801
			c2.704-0.767,1.429,0.124,1.621-0.959c0.194-1.081-6.647-0.672-10.763-4.779c-2.772-1.368-3.683-7.442-13.707-6.208
			c-0.868-1.1-2.739-17.338-3.121-18.746c5.703-11.202,26.348-59.082,90.1-104.968c4.942-5.343-0.742-4.7-1.419-3.87
			c0,0-47.2,32.508-63.082,52.941c-5.558,3.775-32.083,45.543-37.922,49.028c3.333,1.95-9.031-8.574-8.246-10.786
			c0.786-2.214,8.724-7.831,4.178-15.006c2.675-5.376,4.153-7.917,6.543-10.328c-1.087-2.878-7.629,7.45-7.845,9.676
			c-2.955-0.857-4.657-1.463-6.167-3.146c-1.959-7.981-1.59-19.367-2.285-20.559c-1.291,2.963-1.337,12.945,1.198,23.621
			c-0.604,1.703-9.846-7.905-13.904-7.812c-0.594,1.131,5.372,4.32,11.477,9.252c0,0-5.729-2.227-7.646-0.606
			c-1.917,1.621,6.041,0.804,9.875,3.506c3.645,0.529-4.279-0.369-4.153,1.977c4.354,0.285,7.644,0.072,7.644,0.072
			c1.083,0.728-4.167,6.338-5.635,8.31c-2.302,3.783,6.698,14.071,7.966,16.439c-0.639,9.358-8.039,16.7-8.386,25.777
			c0.663,4.069-9.968,24.832-10.364,21.625c1.304-5.287-2.909-5.072-6.115-2.748c0,0-5.186,2.186-6.086,1.481
			c-0.901-0.703,0.367,1.664,0.027,1.543c-0.342-0.12,4.179-0.434,4.7-0.821c-0.066,3.426-8.678,5.545-9.547,9.069
			c-1.273,0.891,6.701-2.854,8.548-4.635c1.538-2.711-3.077,5.426-5.082,5.674c-0.192,1.082,4.943-1.504,5.949-3.256
			s1.02,6.305-14.917,3.139c-9.528-0.698-11.034,0.3-14.192,1.095C60.76,594.636,55.291,593.844,55.812,599.396z"/>
	</g>
</g>
<g>
	<g>
		<path fill="#E8A922" d="M511.894,152.117c0,0-0.754,5.386-5.749,9.472c1.222-0.206-2.541,4.663-9.265,6.392
			c-6.928,4.878-13.793,2.555-16.465,1.96c-2.669-0.592-6.896,1.279-10.78-0.31c0,0-2.368,0.747-3.619,0.185
			c-0.685,1.354-17.513,4.805-18.295,3.855c-0.281-1.558,4.717,5.272-1.068,0.876c-1.459,0.399,2.259,5.648,2.553,7.243
			c-0.682,1.354-3.059-3.253-3.6-4.4c-1.482,0.617,0.269,4.942,0.194,8.973c2.173-0.985-1.827,1.895-1.675,0.377
			c0.151-1.51,0.354-4.658-0.62-8.029c0.521-0.825-2.418,6.745-4.829,7.925c-1.178-0.226-1.201-0.012-2.021-0.529
			c2.671-1.589,4.599-5.227,4.541-6.098c-2.261-0.334-1.581,0.497-1.647-1.038c1.97-0.021,3.561-1.722,3.548-4.889
			c2.551-5.858,15.686-5.094,17.749-7.183c-13.361-4.421-30.751-28.159-30.498-29.937c-0.08-0.272-0.105-0.484-0.081-0.629
			c-0.226,5.797,2.975,8.487-7.555,11.148c0,0,2.279,2.304,4.714,3.092c0.786,0.36,1.276,2.53-3.406,0.206
			c0.685,3.016,4.674,5.706,4.835,7.361c1.123,1.859-3.405-1.978-4.52-2.854c-1.115-0.872,4.406,6.765,5.861,9.103
			c-3.31,0.326-7.505-10.141-8.662-10.584c-0.532,2.022,2.759,15.019,2.318,18.357c-1.05,0.659-0.585,1.471-1.05,0.659
			c0,0-1.648-18.505-5.702-22.735c-0.574,2.457-5.796,5.539-7.281,6.956c-2.386,0.163-1.106,0.509-1.57-0.303
			c-0.468-0.811,5.127-2.45,7.24-6.919c1.825-1.894,0.809-7.018,9.19-8.913c0.376-1.127-2.794-14.665-2.894-15.902
			C414,117.674,383.709,85.28,319.483,66.878c-5.491-2.857-0.758-3.977,0.022-3.507c0,0,47.131,12.458,65.716,24.246
			c5.537,1.425,38.776,27.233,44.455,28.345c-2.108,2.521,4.766-9.46,3.499-11.005s-9.234-3.762-7.657-10.81
			c-3.687-3.536-5.603-5.146-8.207-6.389c0.045-2.614,8.25,3.772,9.062,5.491c2.118-1.536,3.307-2.509,4.031-4.292
			c-0.727-6.953-4.295-15.96-4.08-17.114c1.885,1.999,4.792,9.978,5.833,19.253c0.972,1.189,5.607-9.159,8.884-10.252
			c0.802,0.736-3.06,5.003-6.529,10.706c0,0,3.947-3.431,5.946-2.684c2.002,0.746-4.604,2.379-6.896,5.645
			c-2.768,1.472,3.32-1.526,3.895,0.388c-3.406,1.48-6.1,2.255-6.1,2.255c-0.658,0.895,5.157,3.875,6.898,5.032
			c2.93,2.369-1.314,13.191-1.649,15.452c3.2,7.306,11.234,11.055,14.122,18.223c0.64,3.449,15.118,17.013,14.515,14.334
			c-2.565-3.861,0.871-4.898,4.104-3.958c0,0,4.779,0.256,5.299-0.564c0.518-0.824,0.186,1.438,0.421,1.242
			c0.237-0.195-3.47,0.854-3.998,0.693c1.04,2.722,8.541,1.943,10.251,4.515c1.274,0.348-6.186-0.357-8.176-1.251
			c-2.013-1.728,4.021,3.459,5.699,3.083c0.463,0.81-4.391,0.214-5.699-0.898c-1.31-1.113,0.996,5.339,12.846-1.775
			c7.426-3.3,8.918-2.932,11.676-3.203C506.562,149.729,510.714,147.523,511.894,152.117z"/>
	</g>
	<g>
		<path fill="#E8A922" stroke="#E7C21F" stroke-miterlimit="10" d="M511.894,152.117c0,0-0.754,5.386-5.749,9.472
			c1.222-0.206-2.541,4.663-9.265,6.392c-6.928,4.878-13.793,2.555-16.465,1.96c-2.669-0.592-6.896,1.279-10.78-0.31
			c0,0-2.368,0.747-3.619,0.185c-0.685,1.354-17.513,4.805-18.295,3.855c-0.281-1.558,4.717,5.272-1.068,0.876
			c-1.459,0.399,2.259,5.648,2.553,7.243c-0.682,1.354-3.059-3.253-3.6-4.4c-1.482,0.617,0.269,4.942,0.194,8.973
			c2.173-0.985-1.827,1.895-1.675,0.377c0.151-1.51,0.354-4.658-0.62-8.029c0.521-0.825-2.418,6.745-4.829,7.925
			c-1.178-0.226-1.201-0.012-2.021-0.529c2.671-1.589,4.599-5.227,4.541-6.098c-2.261-0.334-1.581,0.497-1.647-1.038
			c1.97-0.021,3.561-1.722,3.548-4.889c2.551-5.858,15.686-5.094,17.749-7.183c-13.361-4.421-30.751-28.159-30.498-29.937
			c-0.08-0.272-0.105-0.484-0.081-0.629c-0.226,5.797,2.975,8.487-7.555,11.148c0,0,2.279,2.304,4.714,3.092
			c0.786,0.36,1.276,2.53-3.406,0.206c0.685,3.016,4.674,5.706,4.835,7.361c1.123,1.859-3.405-1.978-4.52-2.854
			c-1.115-0.872,4.406,6.765,5.861,9.103c-3.31,0.326-7.505-10.141-8.662-10.584c-0.532,2.022,2.759,15.019,2.318,18.357
			c-1.05,0.659-0.585,1.471-1.05,0.659c0,0-1.648-18.505-5.702-22.735c-0.574,2.457-5.796,5.539-7.281,6.956
			c-2.386,0.163-1.106,0.509-1.57-0.303c-0.468-0.811,5.127-2.45,7.24-6.919c1.825-1.894,0.809-7.018,9.19-8.913
			c0.376-1.127-2.794-14.665-2.894-15.902C414,117.674,383.709,85.28,319.483,66.878c-5.491-2.857-0.758-3.977,0.022-3.507
			c0,0,47.131,12.458,65.716,24.246c5.537,1.425,38.776,27.233,44.455,28.345c-2.108,2.521,4.766-9.46,3.499-11.005
			s-9.234-3.762-7.657-10.81c-3.687-3.536-5.603-5.146-8.207-6.389c0.045-2.614,8.25,3.772,9.062,5.491
			c2.118-1.536,3.307-2.509,4.031-4.292c-0.727-6.953-4.295-15.96-4.08-17.114c1.885,1.999,4.792,9.978,5.833,19.253
			c0.972,1.189,5.607-9.159,8.884-10.252c0.802,0.736-3.06,5.003-6.529,10.706c0,0,3.947-3.431,5.946-2.684
			c2.002,0.746-4.604,2.379-6.896,5.645c-2.768,1.472,3.32-1.526,3.895,0.388c-3.406,1.48-6.1,2.255-6.1,2.255
			c-0.658,0.895,5.157,3.875,6.898,5.032c2.93,2.369-1.314,13.191-1.649,15.452c3.2,7.306,11.234,11.055,14.122,18.223
			c0.64,3.449,15.118,17.013,14.515,14.334c-2.565-3.861,0.871-4.898,4.104-3.958c0,0,4.779,0.256,5.299-0.564
			c0.518-0.824,0.186,1.438,0.421,1.242c0.237-0.195-3.47,0.854-3.998,0.693c1.04,2.722,8.541,1.943,10.251,4.515
			c1.274,0.348-6.186-0.357-8.176-1.251c-2.013-1.728,4.021,3.459,5.699,3.083c0.463,0.81-4.391,0.214-5.699-0.898
			c-1.31-1.113,0.996,5.339,12.846-1.775c7.426-3.3,8.918-2.932,11.676-3.203C506.562,149.729,510.714,147.523,511.894,152.117z"/>
	</g>
	<g>
		<path fill="none" stroke="#E7C21F" stroke-miterlimit="10" d="M511.894,152.117c0,0-0.754,5.386-5.749,9.472
			c1.222-0.206-2.541,4.663-9.265,6.392c-6.928,4.878-13.793,2.555-16.465,1.96c-2.669-0.592-6.896,1.279-10.78-0.31
			c0,0-2.368,0.747-3.619,0.185c-0.685,1.354-17.513,4.805-18.295,3.855c-0.281-1.558,4.717,5.272-1.068,0.876
			c-1.459,0.399,2.259,5.648,2.553,7.243c-0.682,1.354-3.059-3.253-3.6-4.4c-1.482,0.617,0.269,4.942,0.194,8.973
			c2.173-0.985-1.827,1.895-1.675,0.377c0.151-1.51,0.354-4.658-0.62-8.029c0.521-0.825-2.418,6.745-4.829,7.925
			c-1.178-0.226-1.201-0.012-2.021-0.529c2.671-1.589,4.599-5.227,4.541-6.098c-2.261-0.334-1.581,0.497-1.647-1.038
			c1.97-0.021,3.561-1.722,3.548-4.889c2.551-5.858,15.686-5.094,17.749-7.183c-13.361-4.421-30.751-28.159-30.498-29.937
			c-0.08-0.272-0.105-0.484-0.081-0.629c-0.226,5.797,2.975,8.487-7.555,11.148c0,0,2.279,2.304,4.714,3.092
			c0.786,0.36,1.276,2.53-3.406,0.206c0.685,3.016,4.674,5.706,4.835,7.361c1.123,1.859-3.405-1.978-4.52-2.854
			c-1.115-0.872,4.406,6.765,5.861,9.103c-3.31,0.326-7.505-10.141-8.662-10.584c-0.532,2.022,2.759,15.019,2.318,18.357
			c-1.05,0.659-0.585,1.471-1.05,0.659c0,0-1.648-18.505-5.702-22.735c-0.574,2.457-5.796,5.539-7.281,6.956
			c-2.386,0.163-1.106,0.509-1.57-0.303c-0.468-0.811,5.127-2.45,7.24-6.919c1.825-1.894,0.809-7.018,9.19-8.913
			c0.376-1.127-2.794-14.665-2.894-15.902C414,117.674,383.709,85.28,319.483,66.878c-5.491-2.857-0.758-3.977,0.022-3.507
			c0,0,47.131,12.458,65.716,24.246c5.537,1.425,38.776,27.233,44.455,28.345c-2.108,2.521,4.766-9.46,3.499-11.005
			s-9.234-3.762-7.657-10.81c-3.687-3.536-5.603-5.146-8.207-6.389c0.045-2.614,8.25,3.772,9.062,5.491
			c2.118-1.536,3.307-2.509,4.031-4.292c-0.727-6.953-4.295-15.96-4.08-17.114c1.885,1.999,4.792,9.978,5.833,19.253
			c0.972,1.189,5.607-9.159,8.884-10.252c0.802,0.736-3.06,5.003-6.529,10.706c0,0,3.947-3.431,5.946-2.684
			c2.002,0.746-4.604,2.379-6.896,5.645c-2.768,1.472,3.32-1.526,3.895,0.388c-3.406,1.48-6.1,2.255-6.1,2.255
			c-0.658,0.895,5.157,3.875,6.898,5.032c2.93,2.369-1.314,13.191-1.649,15.452c3.2,7.306,11.234,11.055,14.122,18.223
			c0.64,3.449,15.118,17.013,14.515,14.334c-2.565-3.861,0.871-4.898,4.104-3.958c0,0,4.779,0.256,5.299-0.564
			c0.518-0.824,0.186,1.438,0.421,1.242c0.237-0.195-3.47,0.854-3.998,0.693c1.04,2.722,8.541,1.943,10.251,4.515
			c1.274,0.348-6.186-0.357-8.176-1.251c-2.013-1.728,4.021,3.459,5.699,3.083c0.463,0.81-4.391,0.214-5.699-0.898
			c-1.31-1.113,0.996,5.339,12.846-1.775c7.426-3.3,8.918-2.932,11.676-3.203C506.562,149.729,510.714,147.523,511.894,152.117z"/>
	</g>
</g>
<g>
	<g>
		<path fill="#E8A922" d="M180.727,25.375c0,0,8.372,1.034,14.838,8.676c-0.352-1.889,7.295,3.823,10.148,14.208
			c7.744,10.623,4.314,21.332,3.459,25.492c-0.853,4.155,2.16,10.665-0.206,16.728c0,0,1.216,3.657,0.378,5.612
			c2.114,1.025,7.896,27.042,6.443,28.279c-2.409,0.476,8.059-7.449,1.387,1.637c0.657,2.254,8.704-3.647,11.169-4.146
			c2.115,1.023-4.968,4.83-6.734,5.697c0.995,2.284,7.66-0.542,13.913-0.529c-1.583-3.346,2.987,2.783,0.627,2.587
			c-2.344-0.197-7.232-0.432-12.436,1.166c-1.294-0.785,10.522,3.579,12.413,7.29c-0.32,1.834,0.013,1.863-0.769,3.151
			c-2.534-4.103-8.225-7.002-9.573-6.886c-0.463,3.513,0.81,2.435-1.569,2.578c-0.085-3.055-2.762-5.476-7.674-5.378
			c-9.153-3.806-8.3-24.201-11.594-27.35c-6.518,20.839-42.898,48.415-45.661,48.067c-0.422,0.131-0.749,0.179-0.974,0.145
			c8.998,0.2,13.089-4.831,17.484,11.435c0,0,3.514-3.595,4.675-7.391c0.54-1.228,3.891-2.042,0.405,5.278
			c4.662-1.137,8.734-7.391,11.295-7.687c2.856-1.792-2.979,5.332-4.31,7.081c-1.326,1.751,10.382-7.003,13.973-9.321
			c0.587,5.124-15.54,11.898-16.199,13.706c3.151,0.771,23.226-4.662,28.417-4.063c1.05,1.611,2.297,0.869,1.05,1.611
			c0,0-28.665,3.028-35.121,9.423c3.823,0.827,8.736,8.849,10.972,11.118c0.313,3.694,0.818,1.704-0.429,2.444
			c-1.245,0.744-3.93-7.892-10.917-11.056c-2.984-2.784-10.905-1.077-14.058-14.029c-1.758-0.556-22.675,4.704-24.593,4.892
			c-11.17,12.261-60.65,60.069-87.562,160.161c-4.29,8.593-6.148,1.276-5.442,0.054c0,0,18.126-73.42,35.94-102.55
			c2.072-8.625,41.257-60.841,42.84-69.678c3.964,3.208-14.795-7.149-17.161-5.149c-2.364,2.006-5.599,14.421-16.572,12.152
			c-5.392,5.811-7.84,8.821-9.702,12.895c-4.057-0.001,5.641-12.893,8.288-14.196c-2.436-3.248-3.977-5.067-6.761-6.143
			c-10.766,1.302-24.648,7.064-26.44,6.76c3.051-2.973,15.352-7.683,29.715-9.536c1.819-1.538-14.35-8.466-16.129-13.521
			c1.121-1.262,7.839,4.62,16.773,9.857c0,0-5.423-6.034-4.315-9.157c1.107-3.122,3.809,7.083,8.933,10.558
			c2.352,4.252-2.451-5.114,0.502-6.053c2.381,5.244,3.649,9.404,3.649,9.404c1.407,0.998,5.883-8.099,7.633-10.831
			c3.6-4.604,20.496,1.704,24.009,2.167c11.253-5.151,16.864-17.708,27.908-22.371c5.335-1.078,26.006-23.883,21.863-22.877
			c-5.919,4.078-7.615-1.227-6.24-6.267c0,0,0.274-7.419-1.011-8.204c-1.291-0.78,2.226-0.322,1.917-0.685
			c-0.309-0.364,1.413,5.362,1.176,6.185c4.197-1.681,2.798-13.297,6.745-16.016c0.506-1.986-0.398,9.603-1.734,12.714
			c-2.631,3.164,5.263-6.328,4.636-8.919c1.243-0.741,0.445,6.805-1.251,8.863c-1.69,2.059,8.26-1.681-3.078-19.879
			c-5.308-11.435-4.772-13.76-5.267-18.032C177.156,33.704,173.628,27.319,180.727,25.375z"/>
	</g>
	<g>
		<path fill="#E8A922" stroke="#E7C21F" stroke-miterlimit="10" d="M180.727,25.375c0,0,8.372,1.034,14.838,8.676
			c-0.352-1.889,7.295,3.823,10.148,14.208c7.744,10.623,4.314,21.332,3.459,25.492c-0.853,4.155,2.16,10.665-0.206,16.728
			c0,0,1.216,3.657,0.378,5.612c2.114,1.025,7.896,27.042,6.443,28.279c-2.409,0.476,8.059-7.449,1.387,1.637
			c0.657,2.254,8.704-3.647,11.169-4.146c2.115,1.023-4.968,4.83-6.734,5.697c0.995,2.284,7.66-0.542,13.913-0.529
			c-1.583-3.346,2.987,2.783,0.627,2.587c-2.344-0.197-7.232-0.432-12.436,1.166c-1.294-0.785,10.522,3.579,12.413,7.29
			c-0.32,1.834,0.013,1.863-0.769,3.151c-2.534-4.103-8.225-7.002-9.573-6.886c-0.463,3.513,0.81,2.435-1.569,2.578
			c-0.085-3.055-2.762-5.476-7.674-5.378c-9.153-3.806-8.3-24.201-11.594-27.35c-6.518,20.839-42.898,48.415-45.661,48.067
			c-0.422,0.131-0.749,0.179-0.974,0.145c8.998,0.2,13.089-4.831,17.484,11.435c0,0,3.514-3.595,4.675-7.391
			c0.54-1.228,3.891-2.042,0.405,5.278c4.662-1.137,8.734-7.391,11.295-7.687c2.856-1.792-2.979,5.332-4.31,7.081
			c-1.326,1.751,10.382-7.003,13.973-9.321c0.587,5.124-15.54,11.898-16.199,13.706c3.151,0.771,23.226-4.662,28.417-4.063
			c1.05,1.611,2.297,0.869,1.05,1.611c0,0-28.665,3.028-35.121,9.423c3.823,0.827,8.736,8.849,10.972,11.118
			c0.313,3.694,0.818,1.704-0.429,2.444c-1.245,0.744-3.93-7.892-10.917-11.056c-2.984-2.784-10.905-1.077-14.058-14.029
			c-1.758-0.556-22.675,4.704-24.593,4.892c-11.17,12.261-60.65,60.069-87.562,160.161c-4.29,8.593-6.148,1.276-5.442,0.054
			c0,0,18.126-73.42,35.94-102.55c2.072-8.625,41.257-60.841,42.84-69.678c3.964,3.208-14.795-7.149-17.161-5.149
			c-2.364,2.006-5.599,14.421-16.572,12.152c-5.392,5.811-7.84,8.821-9.702,12.895c-4.057-0.001,5.641-12.893,8.288-14.196
			c-2.436-3.248-3.977-5.067-6.761-6.143c-10.766,1.302-24.648,7.064-26.44,6.76c3.051-2.973,15.352-7.683,29.715-9.536
			c1.819-1.538-14.35-8.466-16.129-13.521c1.121-1.262,7.839,4.62,16.773,9.857c0,0-5.423-6.034-4.315-9.157
			c1.107-3.122,3.809,7.083,8.933,10.558c2.352,4.252-2.451-5.114,0.502-6.053c2.381,5.244,3.649,9.404,3.649,9.404
			c1.407,0.998,5.883-8.099,7.633-10.831c3.6-4.604,20.496,1.704,24.009,2.167c11.253-5.151,16.864-17.708,27.908-22.371
			c5.335-1.078,26.006-23.883,21.863-22.877c-5.919,4.078-7.615-1.227-6.24-6.267c0,0,0.274-7.419-1.011-8.204
			c-1.291-0.78,2.226-0.322,1.917-0.685c-0.309-0.364,1.413,5.362,1.176,6.185c4.197-1.681,2.798-13.297,6.745-16.016
			c0.506-1.986-0.398,9.603-1.734,12.714c-2.631,3.164,5.263-6.328,4.636-8.919c1.243-0.741,0.445,6.805-1.251,8.863
			c-1.69,2.059,8.26-1.681-3.078-19.879c-5.308-11.435-4.772-13.76-5.267-18.032C177.156,33.704,173.628,27.319,180.727,25.375z"/>
	</g>
	<g>
		<path fill="none" stroke="#E7C21F" stroke-miterlimit="10" d="M180.727,25.375c0,0,8.372,1.034,14.838,8.676
			c-0.352-1.889,7.295,3.823,10.148,14.208c7.744,10.623,4.314,21.332,3.459,25.492c-0.853,4.155,2.16,10.665-0.206,16.728
			c0,0,1.216,3.657,0.378,5.612c2.114,1.025,7.896,27.042,6.443,28.279c-2.409,0.476,8.059-7.449,1.387,1.637
			c0.657,2.254,8.704-3.647,11.169-4.146c2.115,1.023-4.968,4.83-6.734,5.697c0.995,2.284,7.66-0.542,13.913-0.529
			c-1.583-3.346,2.987,2.783,0.627,2.587c-2.344-0.197-7.232-0.432-12.436,1.166c-1.294-0.785,10.522,3.579,12.413,7.29
			c-0.32,1.834,0.013,1.863-0.769,3.151c-2.534-4.103-8.225-7.002-9.573-6.886c-0.463,3.513,0.81,2.435-1.569,2.578
			c-0.085-3.055-2.762-5.476-7.674-5.378c-9.153-3.806-8.3-24.201-11.594-27.35c-6.518,20.839-42.898,48.415-45.661,48.067
			c-0.422,0.131-0.749,0.179-0.974,0.145c8.998,0.2,13.089-4.831,17.484,11.435c0,0,3.514-3.595,4.675-7.391
			c0.54-1.228,3.891-2.042,0.405,5.278c4.662-1.137,8.734-7.391,11.295-7.687c2.856-1.792-2.979,5.332-4.31,7.081
			c-1.326,1.751,10.382-7.003,13.973-9.321c0.587,5.124-15.54,11.898-16.199,13.706c3.151,0.771,23.226-4.662,28.417-4.063
			c1.05,1.611,2.297,0.869,1.05,1.611c0,0-28.665,3.028-35.121,9.423c3.823,0.827,8.736,8.849,10.972,11.118
			c0.313,3.694,0.818,1.704-0.429,2.444c-1.245,0.744-3.93-7.892-10.917-11.056c-2.984-2.784-10.905-1.077-14.058-14.029
			c-1.758-0.556-22.675,4.704-24.593,4.892c-11.17,12.261-60.65,60.069-87.562,160.161c-4.29,8.593-6.148,1.276-5.442,0.054
			c0,0,18.126-73.42,35.94-102.55c2.072-8.625,41.257-60.841,42.84-69.678c3.964,3.208-14.795-7.149-17.161-5.149
			c-2.364,2.006-5.599,14.421-16.572,12.152c-5.392,5.811-7.84,8.821-9.702,12.895c-4.057-0.001,5.641-12.893,8.288-14.196
			c-2.436-3.248-3.977-5.067-6.761-6.143c-10.766,1.302-24.648,7.064-26.44,6.76c3.051-2.973,15.352-7.683,29.715-9.536
			c1.819-1.538-14.35-8.466-16.129-13.521c1.121-1.262,7.839,4.62,16.773,9.857c0,0-5.423-6.034-4.315-9.157
			c1.107-3.122,3.809,7.083,8.933,10.558c2.352,4.252-2.451-5.114,0.502-6.053c2.381,5.244,3.649,9.404,3.649,9.404
			c1.407,0.998,5.883-8.099,7.633-10.831c3.6-4.604,20.496,1.704,24.009,2.167c11.253-5.151,16.864-17.708,27.908-22.371
			c5.335-1.078,26.006-23.883,21.863-22.877c-5.919,4.078-7.615-1.227-6.24-6.267c0,0,0.274-7.419-1.011-8.204
			c-1.291-0.78,2.226-0.322,1.917-0.685c-0.309-0.364,1.413,5.362,1.176,6.185c4.197-1.681,2.798-13.297,6.745-16.016
			c0.506-1.986-0.398,9.603-1.734,12.714c-2.631,3.164,5.263-6.328,4.636-8.919c1.243-0.741,0.445,6.805-1.251,8.863
			c-1.69,2.059,8.26-1.681-3.078-19.879c-5.308-11.435-4.772-13.76-5.267-18.032C177.156,33.704,173.628,27.319,180.727,25.375z"/>
	</g>
</g>
</svg>
