<?xml version="1.0" encoding="utf-8"?>
<!-- Generator: Adobe Illustrator 16.0.0, SVG Export Plug-In . SVG Version: 6.00 Build 0)  -->
<!DOCTYPE svg PUBLIC "-//W3C//DTD SVG 1.1//EN" "http://www.w3.org/Graphics/SVG/1.1/DTD/svg11.dtd">
<svg version="1.1" id="Layer_1" xmlns="http://www.w3.org/2000/svg" xmlns:xlink="http://www.w3.org/1999/xlink" x="0px" y="0px"
	 width="612px" height="792px" viewBox="0 0 612 792" enable-background="new 0 0 612 792" xml:space="preserve">
<path fill="#10A94B" stroke="#E2E992" stroke-miterlimit="10" d="M298.302,513.308c0,0-12.253-27.396-26.249,13.458
	c0,0-20.063,0.654-14.408,20.121c-7.941,6.63-22.931,18.622-26.983,32.987c-4.866-10.493,1.469-39.057-23.286-47.224
	c0.553-12.469-14.547-29.812-12.073-34.455c2.472-4.647-42.085,15.646-43.084,27.158c-1,11.515-1.306-22.643-0.812-32.757
	c0.493-10.11-8.667-11.054-7.4-14.555c-0.267-8.012-6.24-4.633-11.249,7.014c-5.007,11.649,0.794-21.881,0.915-26.588
	c0.12-4.706-8.693-28.479-10.54-29.939c2.957-8.434,45.523-12.026,42.357-44.841c-11.397-14.445-42.482,3.625-31.462,14.739
	c-10.321-10.862-19.554-18.163-37.91-0.263c-18.355,17.899,11.754-8.414-1.62-19.587c-7.626,3.574-44.883,14.633-50.638,37.094
	c-0.674,17.174-7.825-44.003,26.764-52.069c17.308,4.68-32.393-20.296-25.346-21.842c7.044-1.547,50.436-1.539,46.355-7.766
	c-4.079-6.227-13.374-11.174-12.686-19.635c0.686-8.461-12.288-7.615-19.48-11.802c-7.194-4.187,17.934-1.425-11.36-25.489
	c2.279-6.3,5.32-14.701,5.32-14.701c19.214,3.788,66.611,10.65,67.237,4.542c0.628-6.107-4.646-2.474-9.874-9.907
	c14.314,2.014,10.354-8.92-20.641-21.722c-8.833,4.72,14.807-8.1-29.5-34.43c-44.309-26.33-26.894-35.07-55.596-45.458
	c65.697,37.238,107.592,65.862,167.016,35.114c-2.199-24.548,34.715,33.151,32.276,18.016c-2.44-15.135-5.025-42.99-2.045-49.037
	c0,0,16.772,71.786,35.66,69.913c4.9,1.774,6.576-26.915,37.231-28.488c-11.655,32.202,28.494,0.021,27.082-9.199
	c2.82-27.481,2.582,110.988,2.582,110.988S300.363,487.925,298.302,513.308z"/>
<path fill="#10A94B" stroke="#E2E992" stroke-miterlimit="10" d="M297.125,512.995c0,0,13.373-26.867,25.672,14.531
	c0,0,20.02,1.48,13.563,20.696c7.658,6.951,22.146,19.549,25.602,34.071c5.294-10.283,0.145-39.083,25.215-46.223
	c-0.039-12.479,15.765-29.185,13.485-33.93c-2.281-4.742,41.397,17.368,41.925,28.914c0.524,11.546,2.24-22.567,2.161-32.691
	c-0.074-10.126,9.117-10.688,7.995-14.238c0.599-7.996,6.425-4.373,10.95,7.472c4.521,11.846,0.106-21.896,0.182-26.604
	c0.075-4.709,9.86-28.102,11.767-29.481c-2.604-8.546-44.986-13.895-40.472-46.551c11.983-13.962,42.297,5.375,30.826,16.024
	c10.762-10.426,20.288-17.34,37.888,1.304c17.604,18.642-11.396-8.895,2.428-19.506c7.476,3.886,44.242,16.473,49.063,39.149
	c-0.035,17.188,9.636-43.642-24.594-53.125c-17.483,3.962,33.205-18.942,26.228-20.778c-6.975-1.837-50.33-3.618-45.996-9.672
	s13.823-10.614,13.485-19.095c-0.338-8.481,12.592-7.101,19.952-10.988c7.36-3.886-17.86-2.164,12.401-24.999
	c-2.021-6.389-4.709-14.908-4.709-14.908c-19.354,2.992-66.994,7.894-67.368,1.766c-0.376-6.128,4.743-2.28,10.271-9.492
	c-14.386,1.422-9.978-9.34,21.521-20.852c8.633,5.079-14.462-8.704,30.896-33.185c45.356-24.479,28.316-33.93,57.422-43.125
	c-67.175,34.497-110.216,61.368-168.319,28.195c3.209-24.437-36.055,31.69-32.99,16.669c3.062-15.021,6.794-42.747,4.066-48.911
	c0,0-19.723,71.033-38.517,68.383c-4.968,1.569-5.458-27.165-36.022-30c10.317,32.655-28.47-1.154-26.681-10.31
	c-1.686-27.574-7.158,110.788-7.158,110.788S296.112,487.55,297.125,512.995z"/>
</svg>
