<?xml version="1.0" encoding="utf-8"?>
<!-- Generator: Adobe Illustrator 16.0.0, SVG Export Plug-In . SVG Version: 6.00 Build 0)  -->
<!DOCTYPE svg PUBLIC "-//W3C//DTD SVG 1.1//EN" "http://www.w3.org/Graphics/SVG/1.1/DTD/svg11.dtd">
<svg version="1.1" id="Layer_1" xmlns="http://www.w3.org/2000/svg" xmlns:xlink="http://www.w3.org/1999/xlink" x="0px" y="0px"
	 width="612px" height="792px" viewBox="0 0 612 792" enable-background="new 0 0 612 792" xml:space="preserve">
<path fill="#F1EA42" d="M67.262,487.861c0,0,25.003-10.854-11.959-23.974c0,0-0.394-18.227-18.127-13.285
	c-5.941-7.276-16.682-21.01-29.686-24.831c9.576-4.314,35.451,1.726,43.116-20.677c11.315,0.628,27.216-12.911,31.408-10.619
	c4.196,2.292-13.787-38.373-24.233-39.395c-10.444-1.024,20.575-0.96,29.754-0.411c9.179,0.548,10.125-7.761,13.292-6.576
	c7.278-0.162,4.269-5.619-6.257-10.285c-10.529-4.663,19.861,0.94,24.135,1.097c4.274,0.157,25.952-7.609,27.295-9.272
	c7.629,2.77,10.467,41.46,40.298,38.913c13.231-10.206-2.867-38.615-13.072-28.719c9.967-9.264,16.689-17.576,0.617-34.422
	c-16.073-16.848,7.523,10.757,17.805-1.276c-3.169-6.961-12.84-40.905-33.181-46.354c-15.589-0.784,40.04-6.667,47.017,24.824
	c-4.423,15.671,18.754-29.212,20.088-22.798c1.335,6.411,0.894,45.814,6.589,42.172c5.696-3.642,10.282-12.033,17.958-11.324
	c7.677,0.707,7.038-11.083,10.912-17.573c3.875-6.491,1.115,16.3,23.26-10.06c5.697,2.132,13.295,4.978,13.295,4.978
	c-3.631,17.409-10.335,60.382-4.796,61.012c5.54,0.631,2.294-4.195,9.097-8.868c-1.973,12.979,7.996,9.493,19.931-18.527
	c-4.198-8.068,7.206,13.528,31.56-26.444c24.354-39.974,32.117-24.074,41.836-50.034c-34.473,59.288-60.885,97.046-33.556,151.316
	c22.312-1.751-30.45,31.191-16.685,29.13c13.77-2.064,39.089-4.133,44.553-1.367c0,0-65.355,14.515-63.844,31.683
	c-1.659,4.437,24.373,6.242,25.496,34.098c-29.127-10.905-0.306,25.875,8.083,24.685c24.929,2.835-100.812,1.235-100.812,1.235
	S90.293,489.985,67.262,487.861z"/>
<path fill="#F1EA42" d="M530.873,489.807c0,0-24.967-10.93,12.034-23.934c0,0,0.45-18.225,18.168-13.229
	c5.965-7.26,16.745-20.954,29.765-24.74c-9.563-4.344-35.457,1.613-43.053-20.808c-11.318,0.589-27.176-12.998-31.375-10.717
	c-4.204,2.277,13.907-38.332,24.353-39.321c10.448-0.991-20.568-1.023-29.752-0.503c-9.179,0.52-10.101-7.79-13.27-6.615
	c-7.278-0.185-4.252-5.634,6.287-10.266c10.543-4.628-19.863,0.88-24.141,1.021c-4.271,0.143-25.927-7.688-27.266-9.355
	c-7.637,2.745-10.595,41.425-40.418,38.787c-13.2-10.246,2.987-38.604,13.16-28.676c-9.938-9.295-16.635-17.627-0.511-34.425
	c16.125-16.797-7.559,10.734-17.803-1.331c3.193-6.95,12.97-40.865,33.323-46.252c15.593-0.734-40.015-6.79-47.09,24.679
	c4.372,15.686-18.666-29.271-20.021-22.86c-1.354,6.409-1.035,45.813-6.721,42.15c-5.685-3.657-10.244-12.063-17.922-11.378
	c-7.679,0.685-7.005-11.104-10.857-17.605c-3.854-6.505-1.165,16.294-23.229-10.135c-5.705,2.115-13.312,4.938-13.312,4.938
	c3.578,17.421,10.15,60.415,4.607,61.027c-5.539,0.614-2.279-4.202-9.066-8.896c1.931,12.985-8.026,9.467-19.875-18.587
	c4.223-8.056-7.25,13.503-31.479-26.544c-24.227-40.049-32.041-24.172-41.68-50.16c34.289,59.394,60.584,97.233,33.088,151.419
	c-22.31-1.821,30.354,31.287,16.592,29.182c-13.762-2.106-39.075-4.256-44.545-1.508c0,0,65.31,14.717,63.743,31.883
	c1.647,4.439-24.394,6.165-25.603,34.015c29.161-10.814,0.224,25.878-8.159,24.661c-24.937,2.76,100.809,1.549,100.809,1.549
	S507.836,491.859,530.873,489.807z"/>
</svg>
