<?xml version="1.0" encoding="utf-8"?>
<!-- Generator: Adobe Illustrator 16.0.0, SVG Export Plug-In . SVG Version: 6.00 Build 0)  -->
<!DOCTYPE svg PUBLIC "-//W3C//DTD SVG 1.1//EN" "http://www.w3.org/Graphics/SVG/1.1/DTD/svg11.dtd">
<svg version="1.1" id="Layer_1" xmlns="http://www.w3.org/2000/svg" xmlns:xlink="http://www.w3.org/1999/xlink" x="0px" y="0px"
	 width="612px" height="792px" viewBox="0 0 612 792" enable-background="new 0 0 612 792" xml:space="preserve">
<g>
	<g>
		<path fill="#C9BEDE" d="M254.949,132.854c0,0-1.961,6.873,5.506-0.747c3.118-12.166,8.271-148.121,30.959-134.873
			c9.313-14.764,23.785,2.005,22.562,8.099c-1.223,6.097,4.574-12.951,18.748-2.585c24.076,0.466,21.781,23.777,19.191,36.731
			c8.357,18.384-3.85,27.119-11.617,35.297c-7.77,8.181,11.133-6.741,18.465-7.457c7.332-0.719,60.859-3.337,66.82,15.522
			c33.143-5.261,43.256,27.053,17.318,46.737c-1.529,18.446-22.473,23.988-35.785,23.846c35.498,24.415,15.658,49.648-7.635,39.935
			c7.479,36.472-112.175-52.034-138.481-48.865c-1.288-4.007,77.184,48.848,87.165,65.629c0,0,31.891,28.021,3.186,25.519
			c-5.129-6.797,22.32,19.974,16.635,24.964c13.863,15.397-8.467,22.464-26.49,9.838c-7.77,9.984-32.033-2.087-38.271-14.153
			c-8.321,7.347-37.158-16.098-35.493-22.613c-32.869,3.873-23.281-72.812-14.955-83.765c0,0-44.43,32.51-64.51,11.39
			c-13.152-1.704-28.567-1.396-31.254-25.264c-7.406-0.3-27.098-6.403-26.262-21.383c-21.197-12.592-10.808-32.452,19.7-29.947
			c11.647,6.659-36.752-15.483-30.57-31.458c-10.741-14.316-17.116-32.9,8.122-32.892c-20.231-53.814,27.753-66.559,59.283-12.02
			c0,0,17.56-47.591,40.843,5.387C257.126,9.255,262.793,114.767,254.949,132.854c-0.41,0.938-0.855,1.643-1.337,2.084"/>
	</g>
	<g>
		<path fill="#C9BEDE" stroke="#A81E5D" stroke-miterlimit="10" d="M254.949,132.854c0,0-1.961,6.873,5.506-0.747
			c3.118-12.166,8.271-148.121,30.959-134.873c9.313-14.764,23.785,2.005,22.562,8.099c-1.223,6.097,4.574-12.951,18.748-2.585
			c24.076,0.466,21.781,23.777,19.191,36.731c8.357,18.384-3.85,27.119-11.617,35.297c-7.77,8.181,11.133-6.741,18.465-7.457
			c7.332-0.719,60.859-3.337,66.82,15.522c33.143-5.261,43.256,27.053,17.318,46.737c-1.529,18.446-22.473,23.988-35.785,23.846
			c35.498,24.415,15.658,49.648-7.635,39.935c7.479,36.472-112.175-52.034-138.481-48.865c-1.288-4.007,77.184,48.848,87.165,65.629
			c0,0,31.891,28.021,3.186,25.519c-5.129-6.797,22.32,19.974,16.635,24.964c13.863,15.397-8.467,22.464-26.49,9.838
			c-7.77,9.984-32.033-2.087-38.271-14.153c-8.321,7.347-37.158-16.098-35.493-22.613c-32.869,3.873-23.281-72.812-14.955-83.765
			c0,0-44.43,32.51-64.51,11.39c-13.152-1.704-28.567-1.396-31.254-25.264c-7.406-0.3-27.098-6.403-26.262-21.383
			c-21.197-12.592-10.808-32.452,19.7-29.947c11.647,6.659-36.752-15.483-30.57-31.458c-10.741-14.316-17.116-32.9,8.122-32.892
			c-20.231-53.814,27.753-66.559,59.283-12.02c0,0,17.56-47.591,40.843,5.387C257.126,9.255,262.793,114.767,254.949,132.854
			c-0.41,0.938-0.855,1.643-1.337,2.084"/>
	</g>
	<g>
		<path fill="none" stroke="#A81E5D" stroke-miterlimit="10" d="M254.949,132.854c0,0-1.961,6.873,5.506-0.747
			c3.118-12.166,8.271-148.121,30.959-134.873c9.313-14.764,23.785,2.005,22.562,8.099c-1.223,6.097,4.574-12.951,18.748-2.585
			c24.076,0.466,21.781,23.777,19.191,36.731c8.357,18.384-3.85,27.119-11.617,35.297c-7.77,8.181,11.133-6.741,18.465-7.457
			c7.332-0.719,60.859-3.337,66.82,15.522c33.143-5.261,43.256,27.053,17.318,46.737c-1.529,18.446-22.473,23.988-35.785,23.846
			c35.498,24.415,15.658,49.648-7.635,39.935c7.479,36.472-112.175-52.034-138.481-48.865c-1.288-4.007,77.184,48.848,87.165,65.629
			c0,0,31.891,28.021,3.186,25.519c-5.129-6.797,22.32,19.974,16.635,24.964c13.863,15.397-8.467,22.464-26.49,9.838
			c-7.77,9.984-32.033-2.087-38.271-14.153c-8.321,7.347-37.158-16.098-35.493-22.613c-32.869,3.873-23.281-72.812-14.955-83.765
			c0,0-44.43,32.51-64.51,11.39c-13.152-1.704-28.567-1.396-31.254-25.264c-7.406-0.3-27.098-6.403-26.262-21.383
			c-21.197-12.592-10.808-32.452,19.7-29.947c11.647,6.659-36.752-15.483-30.57-31.458c-10.741-14.316-17.116-32.9,8.122-32.892
			c-20.231-53.814,27.753-66.559,59.283-12.02c0,0,17.56-47.591,40.843,5.387C257.126,9.255,262.793,114.767,254.949,132.854
			c-0.41,0.938-0.855,1.643-1.337,2.084"/>
	</g>
</g>
<g>
	<g>
		<path fill="#C9BEDE" d="M465.127-28.829c0,0-1.801,6.917,5.486-0.875c2.832-12.235,4.802-148.274,27.795-135.561
			c8.966-14.978,23.825,1.448,22.745,7.568c-1.078,6.124,4.271-13.054,18.684-3.023c24.08-0.098,22.332,23.261,20.045,36.272
			c8.785,18.183-3.213,27.201-10.787,35.56c-7.576,8.36,10.971-7,18.285-7.887c7.312-0.891,60.764-4.761,67.164,13.954
			c33.012-6.035,43.879,26.034,18.408,46.319c-1.098,18.477-21.904,24.507-35.217,24.676c36.059,23.578,16.814,49.268-6.699,40.103
			c8.33,36.287-113.362-49.395-139.587-45.611c-1.381-3.976,78.308,47.029,88.677,63.571c0,0,32.537,27.268,3.781,25.438
			C558.622,65,586.69,91.122,581.122,96.244c14.221,15.068-7.938,22.656-26.252,10.456c-7.533,10.163-32.074-1.337-38.593-13.254
			c-8.146,7.54-37.524-15.224-36.012-21.776c-32.77,4.641-24.979-72.247-16.912-83.392c0,0-43.656,33.541-64.225,12.896
			c-13.189-1.395-28.593-0.727-31.838-24.525c-7.41-0.126-27.24-5.768-26.754-20.762c-21.486-12.093-11.564-32.19,18.992-30.4
			c11.801,6.385-37.104-14.619-31.297-30.734c-11.074-14.061-17.881-32.491,7.35-33.073c-21.485-53.325,26.188-67.19,58.985-13.403
			c0,0,16.44-47.989,40.958,4.43C464.412-152.446,472.545-47.095,465.127-28.829c-0.389,0.947-0.816,1.662-1.289,2.114"/>
	</g>
	<g>
		<path fill="#C9BEDE" stroke="#A81E5D" stroke-miterlimit="10" d="M465.127-28.829c0,0-1.801,6.917,5.486-0.875
			c2.832-12.235,4.802-148.274,27.795-135.561c8.966-14.978,23.825,1.448,22.745,7.568c-1.078,6.124,4.271-13.054,18.684-3.023
			c24.08-0.098,22.332,23.261,20.045,36.272c8.785,18.183-3.213,27.201-10.787,35.56c-7.576,8.36,10.971-7,18.285-7.887
			c7.312-0.891,60.764-4.761,67.164,13.954c33.012-6.035,43.879,26.034,18.408,46.319c-1.098,18.477-21.904,24.507-35.217,24.676
			c36.059,23.578,16.814,49.268-6.699,40.103c8.33,36.287-113.362-49.395-139.587-45.611c-1.381-3.976,78.308,47.029,88.677,63.571
			c0,0,32.537,27.268,3.781,25.438C558.622,65,586.69,91.122,581.122,96.244c14.221,15.068-7.938,22.656-26.252,10.456
			c-7.533,10.163-32.074-1.337-38.593-13.254c-8.146,7.54-37.524-15.224-36.012-21.776c-32.77,4.641-24.979-72.247-16.912-83.392
			c0,0-43.656,33.541-64.225,12.896c-13.189-1.395-28.593-0.727-31.838-24.525c-7.41-0.126-27.24-5.768-26.754-20.762
			c-21.486-12.093-11.564-32.19,18.992-30.4c11.801,6.385-37.104-14.619-31.297-30.734c-11.074-14.061-17.881-32.491,7.35-33.073
			c-21.485-53.325,26.188-67.19,58.985-13.403c0,0,16.44-47.989,40.958,4.43C464.412-152.446,472.545-47.095,465.127-28.829
			c-0.389,0.947-0.816,1.662-1.289,2.114"/>
	</g>
	<g>
		<path fill="none" stroke="#A81E5D" stroke-miterlimit="10" d="M465.127-28.829c0,0-1.801,6.917,5.486-0.875
			c2.832-12.235,4.802-148.274,27.795-135.561c8.966-14.978,23.825,1.448,22.745,7.568c-1.078,6.124,4.271-13.054,18.684-3.023
			c24.08-0.098,22.332,23.261,20.045,36.272c8.785,18.183-3.213,27.201-10.787,35.56c-7.576,8.36,10.971-7,18.285-7.887
			c7.312-0.891,60.764-4.761,67.164,13.954c33.012-6.035,43.879,26.034,18.408,46.319c-1.098,18.477-21.904,24.507-35.217,24.676
			c36.059,23.578,16.814,49.268-6.699,40.103c8.33,36.287-113.362-49.395-139.587-45.611c-1.381-3.976,78.308,47.029,88.677,63.571
			c0,0,32.537,27.268,3.781,25.438C558.622,65,586.69,91.122,581.122,96.244c14.221,15.068-7.938,22.656-26.252,10.456
			c-7.533,10.163-32.074-1.337-38.593-13.254c-8.146,7.54-37.524-15.224-36.012-21.776c-32.77,4.641-24.979-72.247-16.912-83.392
			c0,0-43.656,33.541-64.225,12.896c-13.189-1.395-28.593-0.727-31.838-24.525c-7.41-0.126-27.24-5.768-26.754-20.762
			c-21.486-12.093-11.564-32.19,18.992-30.4c11.801,6.385-37.104-14.619-31.297-30.734c-11.074-14.061-17.881-32.491,7.35-33.073
			c-21.485-53.325,26.188-67.19,58.985-13.403c0,0,16.44-47.989,40.958,4.43C464.412-152.446,472.545-47.095,465.127-28.829
			c-0.389,0.947-0.816,1.662-1.289,2.114"/>
	</g>
</g>
<g>
	<g>
		<path fill="#C9BEDE" d="M73.093,229.087c0,0,4.19-5.79-5.431-1.178C60.58,238.279,9.317,364.306-7.485,344.108
			c-13.794,10.696-21.671-10.005-18.443-15.316c3.229-5.313-8.72,10.611-18.502-3.971c-22.471-8.657-12.356-29.785-5.497-41.076
			c-1.58-20.132,12.877-24.175,22.968-29.21c10.096-5.036-12.763,2.536-19.9,0.705c-7.137-1.827-58.342-17.642-57.503-37.402
			c-32.949-6.372-31.422-40.198-0.322-49.843c7.735-16.815,29.31-14.873,41.775-10.194c-25.028-35.067,2.235-52.011,20.813-34.929
			c5.422-36.833,87.667,87.206,113.476,93.209c-0.158,4.206-55.871-72.266-59.521-91.445c0,0-20.406-37.226,5.72-25.073
			c2.498,8.139-14.162-26.396-7.112-29.146c-7.773-19.206,15.626-18.224,28.256-0.203c10.71-6.731,29.396,12.899,31.14,26.369
			c10.33-4.063,29.429,27.817,25.639,33.374c32.217,7.581-2.977,76.385-14.542,83.837c0,0,52.861-15.387,64.522,11.319
			c11.781,6.091,26.375,11.065,20.751,34.417c6.859,2.811,23.284,15.27,17.384,29.063c15.624,19.073-0.921,34.192-28.741,21.423
			c-8.674-10.236,29.258,27.1,17.993,40.005c5.208,17.124,4.854,36.767-18.864,28.143c0.644,57.487-48.811,53.083-59.825-8.943
			c0,0-32.752,38.735-36.549-19.008C28.846,344.516,59.545,243.41,73.093,229.087c0.706-0.741,1.364-1.252,1.968-1.502"/>
	</g>
	<g>
		<path fill="#C9BEDE" stroke="#A81E5D" stroke-miterlimit="10" d="M73.093,229.087c0,0,4.19-5.79-5.431-1.178
			C60.58,238.279,9.317,364.306-7.485,344.108c-13.794,10.696-21.671-10.005-18.443-15.316c3.229-5.313-8.72,10.611-18.502-3.971
			c-22.471-8.657-12.356-29.785-5.497-41.076c-1.58-20.132,12.877-24.175,22.968-29.21c10.096-5.036-12.763,2.536-19.9,0.705
			c-7.137-1.827-58.342-17.642-57.503-37.402c-32.949-6.372-31.422-40.198-0.322-49.843c7.735-16.815,29.31-14.873,41.775-10.194
			c-25.028-35.067,2.235-52.011,20.813-34.929c5.422-36.833,87.667,87.206,113.476,93.209c-0.158,4.206-55.871-72.266-59.521-91.445
			c0,0-20.406-37.226,5.72-25.073c2.498,8.139-14.162-26.396-7.112-29.146c-7.773-19.206,15.626-18.224,28.256-0.203
			c10.71-6.731,29.396,12.899,31.14,26.369c10.33-4.063,29.429,27.817,25.639,33.374c32.217,7.581-2.977,76.385-14.542,83.837
			c0,0,52.861-15.387,64.522,11.319c11.781,6.091,26.375,11.065,20.751,34.417c6.859,2.811,23.284,15.27,17.384,29.063
			c15.624,19.073-0.921,34.192-28.741,21.423c-8.674-10.236,29.258,27.1,17.993,40.005c5.208,17.124,4.854,36.767-18.864,28.143
			c0.644,57.487-48.811,53.083-59.825-8.943c0,0-32.752,38.735-36.549-19.008C28.846,344.516,59.545,243.41,73.093,229.087
			c0.706-0.741,1.364-1.252,1.968-1.502"/>
	</g>
	<g>
		<path fill="none" stroke="#A81E5D" stroke-miterlimit="10" d="M73.093,229.087c0,0,4.19-5.79-5.431-1.178
			C60.58,238.279,9.317,364.306-7.485,344.108c-13.794,10.696-21.671-10.005-18.443-15.316c3.229-5.313-8.72,10.611-18.502-3.971
			c-22.471-8.657-12.356-29.785-5.497-41.076c-1.58-20.132,12.877-24.175,22.968-29.21c10.096-5.036-12.763,2.536-19.9,0.705
			c-7.137-1.827-58.342-17.642-57.503-37.402c-32.949-6.372-31.422-40.198-0.322-49.843c7.735-16.815,29.31-14.873,41.775-10.194
			c-25.028-35.067,2.235-52.011,20.813-34.929c5.422-36.833,87.667,87.206,113.476,93.209c-0.158,4.206-55.871-72.266-59.521-91.445
			c0,0-20.406-37.226,5.72-25.073c2.498,8.139-14.162-26.396-7.112-29.146c-7.773-19.206,15.626-18.224,28.256-0.203
			c10.71-6.731,29.396,12.899,31.14,26.369c10.33-4.063,29.429,27.817,25.639,33.374c32.217,7.581-2.977,76.385-14.542,83.837
			c0,0,52.861-15.387,64.522,11.319c11.781,6.091,26.375,11.065,20.751,34.417c6.859,2.811,23.284,15.27,17.384,29.063
			c15.624,19.073-0.921,34.192-28.741,21.423c-8.674-10.236,29.258,27.1,17.993,40.005c5.208,17.124,4.854,36.767-18.864,28.143
			c0.644,57.487-48.811,53.083-59.825-8.943c0,0-32.752,38.735-36.549-19.008C28.846,344.516,59.545,243.41,73.093,229.087
			c0.706-0.741,1.364-1.252,1.968-1.502"/>
	</g>
</g>
<g>
	<g>
		<path fill="#C9BEDE" d="M616.26,257.482c0,0,3.261,6.358-5.547,0.341c-5.425-11.327-36.952-143.677-56.627-126.265
			c-12.01-12.667-22.938,6.595-20.554,12.336c2.384,5.742-7.009-11.813-18.892,1.114c-23.524,5.145-16.736,27.562-11.672,39.768
			c-4.619,19.655,9.057,25.848,18.266,32.358c9.214,6.51-12.23-4.445-19.562-3.718c-7.331,0.721-60.346,8.574-62.518,28.234
			c-33.534,1.294-37.163,34.959-7.89,49.216c5.093,17.793,26.711,19.153,39.743,16.42c-30.064,30.859-5.69,51.748,15.266,37.684
			c-0.234,37.231,99.896-72.877,126.315-74.893c0.483-4.18-66.197,62.941-72.718,81.345c0,0-25.824,33.693,1.846,25.65
			c3.704-7.664-18.007,23.939-11.455,27.729c-10.602,17.802,12.676,20.386,27.896,4.491c9.564,8.279,31.014-8.285,34.783-21.333
			c9.595,5.585,33.313-23.026,30.41-29.092c32.996-2.6,8.659-75.951-1.639-85.071c0,0,49.909,23.235,65.491-1.39
			c12.572-4.231,27.752-6.931,25.74-30.867c7.205-1.735,25.332-11.554,21.594-26.084c18.34-16.479,4.282-33.937-25.153-25.541
			c-10.127,8.8,33.034-22.341,23.859-36.807c7.75-16.135,10.384-35.603-14.37-30.68c9.368-56.723-40.18-59.883-60.489-0.25
			c0,0-26.488-43.261-39.011,13.235C590.058,136.673,605.044,241.267,616.26,257.482c0.585,0.842,1.16,1.444,1.718,1.783"/>
	</g>
	<g>
		<path fill="#C9BEDE" stroke="#A81E5D" stroke-miterlimit="10" d="M616.26,257.482c0,0,3.261,6.358-5.547,0.341
			c-5.425-11.327-36.952-143.677-56.627-126.265c-12.01-12.667-22.938,6.595-20.554,12.336c2.384,5.742-7.009-11.813-18.892,1.114
			c-23.524,5.145-16.736,27.562-11.672,39.768c-4.619,19.655,9.057,25.848,18.266,32.358c9.214,6.51-12.23-4.445-19.562-3.718
			c-7.331,0.721-60.346,8.574-62.518,28.234c-33.534,1.294-37.163,34.959-7.89,49.216c5.093,17.793,26.711,19.153,39.743,16.42
			c-30.064,30.859-5.69,51.748,15.266,37.684c-0.234,37.231,99.896-72.877,126.315-74.893c0.483-4.18-66.197,62.941-72.718,81.345
			c0,0-25.824,33.693,1.846,25.65c3.704-7.664-18.007,23.939-11.455,27.729c-10.602,17.802,12.676,20.386,27.896,4.491
			c9.564,8.279,31.014-8.285,34.783-21.333c9.595,5.585,33.313-23.026,30.41-29.092c32.996-2.6,8.659-75.951-1.639-85.071
			c0,0,49.909,23.235,65.491-1.39c12.572-4.231,27.752-6.931,25.74-30.867c7.205-1.735,25.332-11.554,21.594-26.084
			c18.34-16.479,4.282-33.937-25.153-25.541c-10.127,8.8,33.034-22.341,23.859-36.807c7.75-16.135,10.384-35.603-14.37-30.68
			c9.368-56.723-40.18-59.883-60.489-0.25c0,0-26.488-43.261-39.011,13.235C590.058,136.673,605.044,241.267,616.26,257.482
			c0.585,0.842,1.16,1.444,1.718,1.783"/>
	</g>
	<g>
		<path fill="none" stroke="#A81E5D" stroke-miterlimit="10" d="M616.26,257.482c0,0,3.261,6.358-5.547,0.341
			c-5.425-11.327-36.952-143.677-56.627-126.265c-12.01-12.667-22.938,6.595-20.554,12.336c2.384,5.742-7.009-11.813-18.892,1.114
			c-23.524,5.145-16.736,27.562-11.672,39.768c-4.619,19.655,9.057,25.848,18.266,32.358c9.214,6.51-12.23-4.445-19.562-3.718
			c-7.331,0.721-60.346,8.574-62.518,28.234c-33.534,1.294-37.163,34.959-7.89,49.216c5.093,17.793,26.711,19.153,39.743,16.42
			c-30.064,30.859-5.69,51.748,15.266,37.684c-0.234,37.231,99.896-72.877,126.315-74.893c0.483-4.18-66.197,62.941-72.718,81.345
			c0,0-25.824,33.693,1.846,25.65c3.704-7.664-18.007,23.939-11.455,27.729c-10.602,17.802,12.676,20.386,27.896,4.491
			c9.564,8.279,31.014-8.285,34.783-21.333c9.595,5.585,33.313-23.026,30.41-29.092c32.996-2.6,8.659-75.951-1.639-85.071
			c0,0,49.909,23.235,65.491-1.39c12.572-4.231,27.752-6.931,25.74-30.867c7.205-1.735,25.332-11.554,21.594-26.084
			c18.34-16.479,4.282-33.937-25.153-25.541c-10.127,8.8,33.034-22.341,23.859-36.807c7.75-16.135,10.384-35.603-14.37-30.68
			c9.368-56.723-40.18-59.883-60.489-0.25c0,0-26.488-43.261-39.011,13.235C590.058,136.673,605.044,241.267,616.26,257.482
			c0.585,0.842,1.16,1.444,1.718,1.783"/>
	</g>
</g>
<g>
	<g>
		<path fill="#C9BEDE" d="M240.438,813.244c0,0-6.966-1.602,1.03,5.461c12.312,2.48,148.353,0.562,136.302,23.908
			c15.226,8.532-0.767,23.857-6.916,22.954c-6.152-0.903,13.171,3.896,3.555,18.587c0.787,24.067-22.612,22.989-35.684,21.074
			c-17.925,9.303-27.28-2.435-35.854-9.766c-8.571-7.334,7.31,10.766,8.406,18.051c1.1,7.286,6.496,60.605-12.028,67.537
			c6.977,32.824-24.77,44.604-45.773,19.724c-18.501-0.568-25.122-21.193-25.672-34.496c-22.538,36.716-48.769,18.216-40.279-5.552
			c-36.034,9.364,46.134-114.726,41.603-140.834c3.935-1.492-44.771,79.621-61.01,90.459c0,0-26.327,33.302-25.32,4.506
			c6.522-5.473-18.787,23.33-24.067,17.911c-14.656,14.645-22.874-7.287-11.201-25.943c-10.375-7.238,0.419-32.099,12.145-38.955
			c-7.771-7.928,14.145-37.944,20.738-36.62c-5.576-32.624,71.502-27.033,82.875-19.288c0,0-34.775-42.681-14.728-63.83
			c1.017-13.224-0.091-28.602,23.605-32.526c-0.086-7.411,4.986-27.394,19.988-27.337c11.475-21.823,31.848-12.48,30.931,18.117
			c-6.045,11.978,13.552-37.507,29.828-32.164c13.737-11.471,31.966-18.802,33.27,6.401c52.688-23.001,67.91,24.257,15.084,58.578
			c0,0,48.438,15.063-3.258,41.068C363.983,808.997,258.908,820.139,240.438,813.244c-0.958-0.361-1.686-0.768-2.15-1.228"/>
	</g>
	<g>
		<path fill="#C9BEDE" stroke="#A81E5D" stroke-miterlimit="10" d="M240.438,813.244c0,0-6.966-1.602,1.03,5.461
			c12.312,2.48,148.353,0.562,136.302,23.908c15.226,8.532-0.767,23.857-6.916,22.954c-6.152-0.903,13.171,3.896,3.555,18.587
			c0.787,24.067-22.612,22.989-35.684,21.074c-17.925,9.303-27.28-2.435-35.854-9.766c-8.571-7.334,7.31,10.766,8.406,18.051
			c1.1,7.286,6.496,60.605-12.028,67.537c6.977,32.824-24.77,44.604-45.773,19.724c-18.501-0.568-25.122-21.193-25.672-34.496
			c-22.538,36.716-48.769,18.216-40.279-5.552c-36.034,9.364,46.134-114.726,41.603-140.834c3.935-1.492-44.771,79.621-61.01,90.459
			c0,0-26.327,33.302-25.32,4.506c6.522-5.473-18.787,23.33-24.067,17.911c-14.656,14.645-22.874-7.287-11.201-25.943
			c-10.375-7.238,0.419-32.099,12.145-38.955c-7.771-7.928,14.145-37.944,20.738-36.62c-5.576-32.624,71.502-27.033,82.875-19.288
			c0,0-34.775-42.681-14.728-63.83c1.017-13.224-0.091-28.602,23.605-32.526c-0.086-7.411,4.986-27.394,19.988-27.337
			c11.475-21.823,31.848-12.48,30.931,18.117c-6.045,11.978,13.552-37.507,29.828-32.164c13.737-11.471,31.966-18.802,33.27,6.401
			c52.688-23.001,67.91,24.257,15.084,58.578c0,0,48.438,15.063-3.258,41.068C363.983,808.997,258.908,820.139,240.438,813.244
			c-0.958-0.361-1.686-0.768-2.15-1.228"/>
	</g>
	<g>
		<path fill="none" stroke="#A81E5D" stroke-miterlimit="10" d="M240.438,813.244c0,0-6.966-1.602,1.03,5.461
			c12.312,2.48,148.353,0.562,136.302,23.908c15.226,8.532-0.767,23.857-6.916,22.954c-6.152-0.903,13.171,3.896,3.555,18.587
			c0.787,24.067-22.612,22.989-35.684,21.074c-17.925,9.303-27.28-2.435-35.854-9.766c-8.571-7.334,7.31,10.766,8.406,18.051
			c1.1,7.286,6.496,60.605-12.028,67.537c6.977,32.824-24.77,44.604-45.773,19.724c-18.501-0.568-25.122-21.193-25.672-34.496
			c-22.538,36.716-48.769,18.216-40.279-5.552c-36.034,9.364,46.134-114.726,41.603-140.834c3.935-1.492-44.771,79.621-61.01,90.459
			c0,0-26.327,33.302-25.32,4.506c6.522-5.473-18.787,23.33-24.067,17.911c-14.656,14.645-22.874-7.287-11.201-25.943
			c-10.375-7.238,0.419-32.099,12.145-38.955c-7.771-7.928,14.145-37.944,20.738-36.62c-5.576-32.624,71.502-27.033,82.875-19.288
			c0,0-34.775-42.681-14.728-63.83c1.017-13.224-0.091-28.602,23.605-32.526c-0.086-7.411,4.986-27.394,19.988-27.337
			c11.475-21.823,31.848-12.48,30.931,18.117c-6.045,11.978,13.552-37.507,29.828-32.164c13.737-11.471,31.966-18.802,33.27,6.401
			c52.688-23.001,67.91,24.257,15.084,58.578c0,0,48.438,15.063-3.258,41.068C363.983,808.997,258.908,820.139,240.438,813.244
			c-0.958-0.361-1.686-0.768-2.15-1.228"/>
	</g>
</g>
<g>
	<g>
		<path fill="#C9BEDE" d="M14.997,603.218c0,0-6.533,2.897,4.102,3.75c11.338-5.403,119.02-88.559,123.388-62.651
			c17.3-2.309,13.701,19.546,8.239,22.513c-5.464,2.969,12.874-4.786,13.996,12.737c15.069,18.782-4.297,31.959-15.904,38.269
			c-8.758,18.196-23.286,14.421-34.542,13.699c-11.258-0.724,12.307,4.227,17.555,9.398c5.251,5.168,41.559,44.587,30.897,61.245
			c25.275,22.076,6.946,50.546-24.785,43.244c-15.142,10.645-32.813-1.883-41.235-12.195c3.999,42.896-28.086,43.833-35.555,19.726
			C37.944,782.063,29.227,633.49,9.938,615.322c2.251-3.556,11.954,90.561,5.464,108.974c0,0-1.081,42.438-17.553,18.795
			c1.934-8.29-1.032,29.938-8.508,28.769c-2.938,20.51-22.671,7.895-24.526-14.033c-12.643,0.433-18.923-25.932-13.656-38.452
			c-10.973-1.681-11.45-38.843-5.38-41.739c-24.035-22.754,40.984-64.527,54.728-65.153c0,0-53.428-13.281-50.079-42.229
			c-7.12-11.189-17.233-22.827-0.629-40.184c-4.516-5.879-12.447-24.907-0.411-33.862c-3.914-24.344,17.99-29.092,35.616-4.065
			c2.35,13.209-11.663-38.137,4.564-43.627c4.108-17.419,14.292-34.221,30.458-14.84c28.351-50.013,68.883-21.339,47.213,37.814
			c0,0,47.789-17.013,22.034,34.809C111.287,525.694,33.91,597.65,14.997,603.218c-0.982,0.286-1.809,0.396-2.457,0.309"/>
	</g>
	<g>
		<path fill="#C9BEDE" stroke="#A81E5D" stroke-miterlimit="10" d="M14.997,603.218c0,0-6.533,2.897,4.102,3.75
			c11.338-5.403,119.02-88.559,123.388-62.651c17.3-2.309,13.701,19.546,8.239,22.513c-5.464,2.969,12.874-4.786,13.996,12.737
			c15.069,18.782-4.297,31.959-15.904,38.269c-8.758,18.196-23.286,14.421-34.542,13.699c-11.258-0.724,12.307,4.227,17.555,9.398
			c5.251,5.168,41.559,44.587,30.897,61.245c25.275,22.076,6.946,50.546-24.785,43.244c-15.142,10.645-32.813-1.883-41.235-12.195
			c3.999,42.896-28.086,43.833-35.555,19.726C37.944,782.063,29.227,633.49,9.938,615.322c2.251-3.556,11.954,90.561,5.464,108.974
			c0,0-1.081,42.438-17.553,18.795c1.934-8.29-1.032,29.938-8.508,28.769c-2.938,20.51-22.671,7.895-24.526-14.033
			c-12.643,0.433-18.923-25.932-13.656-38.452c-10.973-1.681-11.45-38.843-5.38-41.739c-24.035-22.754,40.984-64.527,54.728-65.153
			c0,0-53.428-13.281-50.079-42.229c-7.12-11.189-17.233-22.827-0.629-40.184c-4.516-5.879-12.447-24.907-0.411-33.862
			c-3.914-24.344,17.99-29.092,35.616-4.065c2.35,13.209-11.663-38.137,4.564-43.627c4.108-17.419,14.292-34.221,30.458-14.84
			c28.351-50.013,68.883-21.339,47.213,37.814c0,0,47.789-17.013,22.034,34.809C111.287,525.694,33.91,597.65,14.997,603.218
			c-0.982,0.286-1.809,0.396-2.457,0.309"/>
	</g>
	<g>
		<path fill="none" stroke="#A81E5D" stroke-miterlimit="10" d="M14.997,603.218c0,0-6.533,2.897,4.102,3.75
			c11.338-5.403,119.02-88.559,123.388-62.651c17.3-2.309,13.701,19.546,8.239,22.513c-5.464,2.969,12.874-4.786,13.996,12.737
			c15.069,18.782-4.297,31.959-15.904,38.269c-8.758,18.196-23.286,14.421-34.542,13.699c-11.258-0.724,12.307,4.227,17.555,9.398
			c5.251,5.168,41.559,44.587,30.897,61.245c25.275,22.076,6.946,50.546-24.785,43.244c-15.142,10.645-32.813-1.883-41.235-12.195
			c3.999,42.896-28.086,43.833-35.555,19.726C37.944,782.063,29.227,633.49,9.938,615.322c2.251-3.556,11.954,90.561,5.464,108.974
			c0,0-1.081,42.438-17.553,18.795c1.934-8.29-1.032,29.938-8.508,28.769c-2.938,20.51-22.671,7.895-24.526-14.033
			c-12.643,0.433-18.923-25.932-13.656-38.452c-10.973-1.681-11.45-38.843-5.38-41.739c-24.035-22.754,40.984-64.527,54.728-65.153
			c0,0-53.428-13.281-50.079-42.229c-7.12-11.189-17.233-22.827-0.629-40.184c-4.516-5.879-12.447-24.907-0.411-33.862
			c-3.914-24.344,17.99-29.092,35.616-4.065c2.35,13.209-11.663-38.137,4.564-43.627c4.108-17.419,14.292-34.221,30.458-14.84
			c28.351-50.013,68.883-21.339,47.213,37.814c0,0,47.789-17.013,22.034,34.809C111.287,525.694,33.91,597.65,14.997,603.218
			c-0.982,0.286-1.809,0.396-2.457,0.309"/>
	</g>
</g>
<g>
	<g>
		<path fill="#C9BEDE" d="M545.492,636.859c0,0,7.113-0.696-2.715-4.85c-12.461,1.563-140.83,46.64-136.829,20.672
			c-17.149-3.248-6.859-22.862-0.741-23.961c6.119-1.101-13.727,0.495-9.281-16.492c-8.398-22.568,14.129-28.986,27.131-31.326
			c14.036-14.519,26.64-6.367,37.098-2.142c10.459,4.227-10.354-7.883-13.709-14.442c-3.359-6.557-25.43-55.394-10.071-67.854
			c-17.05-28.904,9.302-50.166,37.126-33.257c17.722-5.343,30.558,12.106,35.31,24.544c9.693-41.978,40.444-32.777,39.954-7.544
			c31.186-20.337-7.261,123.441,5.337,146.752c-3.255,2.668,17.13-89.725,29.081-105.163c0,0,14.371-39.944,22.572-12.322
			c-4.443,7.263,10.395-28.094,17.123-24.634c9.238-18.544,24.004-0.364,18.869,21.034c12.137,3.565,9.809,30.566,0.871,40.796
			c9.889,5.046-1.345,40.474-8.018,41.313c15.66,29.157-59.196,48.366-72.439,44.639c0,0,46.541,29.409,34.258,55.835
			c3.241,12.86,9.182,27.089-12.037,38.343c2.438,7,3.982,27.559-10.26,32.274c-3.939,24.339-26.225,21.959-35.086-7.341
			c1.923-13.278-0.922,39.869-18.052,39.979c-9.378,15.243-24.329,27.99-33.579,4.509c-42.641,38.561-72.099-1.404-32.928-50.742
			c0,0-50.714,1.122-9.969-39.971C429.709,680.171,525.787,636.196,545.492,636.859c1.022,0.037,1.841,0.193,2.428,0.479"/>
	</g>
	<g>
		<path fill="#C9BEDE" stroke="#A81E5D" stroke-miterlimit="10" d="M545.492,636.859c0,0,7.113-0.696-2.715-4.85
			c-12.461,1.563-140.83,46.64-136.829,20.672c-17.149-3.248-6.859-22.862-0.741-23.961c6.119-1.101-13.727,0.495-9.281-16.492
			c-8.398-22.568,14.129-28.986,27.131-31.326c14.036-14.519,26.64-6.367,37.098-2.142c10.459,4.227-10.354-7.883-13.709-14.442
			c-3.359-6.557-25.43-55.394-10.071-67.854c-17.05-28.904,9.302-50.166,37.126-33.257c17.722-5.343,30.558,12.106,35.31,24.544
			c9.693-41.978,40.444-32.777,39.954-7.544c31.186-20.337-7.261,123.441,5.337,146.752c-3.255,2.668,17.13-89.725,29.081-105.163
			c0,0,14.371-39.944,22.572-12.322c-4.443,7.263,10.395-28.094,17.123-24.634c9.238-18.544,24.004-0.364,18.869,21.034
			c12.137,3.565,9.809,30.566,0.871,40.796c9.889,5.046-1.345,40.474-8.018,41.313c15.66,29.157-59.196,48.366-72.439,44.639
			c0,0,46.541,29.409,34.258,55.835c3.241,12.86,9.182,27.089-12.037,38.343c2.438,7,3.982,27.559-10.26,32.274
			c-3.939,24.339-26.225,21.959-35.086-7.341c1.923-13.278-0.922,39.869-18.052,39.979c-9.378,15.243-24.329,27.99-33.579,4.509
			c-42.641,38.561-72.099-1.404-32.928-50.742c0,0-50.714,1.122-9.969-39.971C429.709,680.171,525.787,636.196,545.492,636.859
			c1.022,0.037,1.841,0.193,2.428,0.479"/>
	</g>
	<g>
		<path fill="none" stroke="#A81E5D" stroke-miterlimit="10" d="M545.492,636.859c0,0,7.113-0.696-2.715-4.85
			c-12.461,1.563-140.83,46.64-136.829,20.672c-17.149-3.248-6.859-22.862-0.741-23.961c6.119-1.101-13.727,0.495-9.281-16.492
			c-8.398-22.568,14.129-28.986,27.131-31.326c14.036-14.519,26.64-6.367,37.098-2.142c10.459,4.227-10.354-7.883-13.709-14.442
			c-3.359-6.557-25.43-55.394-10.071-67.854c-17.05-28.904,9.302-50.166,37.126-33.257c17.722-5.343,30.558,12.106,35.31,24.544
			c9.693-41.978,40.444-32.777,39.954-7.544c31.186-20.337-7.261,123.441,5.337,146.752c-3.255,2.668,17.13-89.725,29.081-105.163
			c0,0,14.371-39.944,22.572-12.322c-4.443,7.263,10.395-28.094,17.123-24.634c9.238-18.544,24.004-0.364,18.869,21.034
			c12.137,3.565,9.809,30.566,0.871,40.796c9.889,5.046-1.345,40.474-8.018,41.313c15.66,29.157-59.196,48.366-72.439,44.639
			c0,0,46.541,29.409,34.258,55.835c3.241,12.86,9.182,27.089-12.037,38.343c2.438,7,3.982,27.559-10.26,32.274
			c-3.939,24.339-26.225,21.959-35.086-7.341c1.923-13.278-0.922,39.869-18.052,39.979c-9.378,15.243-24.329,27.99-33.579,4.509
			c-42.641,38.561-72.099-1.404-32.928-50.742c0,0-50.714,1.122-9.969-39.971C429.709,680.171,525.787,636.196,545.492,636.859
			c1.022,0.037,1.841,0.193,2.428,0.479"/>
	</g>
</g>
<g>
	<g>
		<path fill="#101B0F" d="M326.577,480.908c0,0,7.149,0.115-2.145-5.126c-12.56,0.14-145.208,30.37-138.291,5.023
			c-16.669-5.171-4.221-23.491,1.98-23.89c6.204-0.4-13.693-1.063-7.351-17.437c-5.787-23.377,17.325-27.2,30.508-28.05
			c15.592-12.834,27.189-3.307,37.101,2.078c9.913,5.385-9.391-9.005-11.982-15.904c-2.594-6.894-18.987-57.917-2.314-68.559
			c-13.663-30.651,14.93-48.788,40.659-28.832c18.209-3.301,28.985,15.491,32.297,28.388c14.391-40.607,43.9-27.982,40.55-2.967
			c33.293-16.666-21.203,121.824-11.332,146.414c-3.54,2.28,27.192-87.206,40.816-101.192c0,0,18.808-38.055,23.821-9.68
			c-5.236,6.711,13.513-26.735,19.806-22.533c11.282-17.376,23.893,2.36,16.365,23.037c11.652,4.92,6.278,31.483-3.76,40.632
			c9.251,6.134-5.924,40.059-12.649,40.138c12.25,30.746-64.3,41.341-77.037,36.138c0,0,42.906,34.496,27.71,59.36
			c1.761,13.143,6.05,27.952-16.309,36.73c1.63,7.232,0.831,27.83-13.853,30.901c-6.671,23.733-28.546,18.846-34.029-11.273
			c3.417-12.973-5.435,39.509-22.466,37.678c-11.046,14.083-27.345,25.051-33.875,0.674c-46.737,33.474-71.473-9.572-26.962-54.149
			c0,0-50.514-4.635-5.372-40.846C206.634,510.814,307.079,478.014,326.577,480.908c1.015,0.151,1.811,0.397,2.362,0.751"/>
	</g>
	<g>
		<path fill="#C9BEDE" stroke="#A81E5D" stroke-miterlimit="10" d="M326.577,480.908c0,0,7.149,0.115-2.145-5.126
			c-12.56,0.14-145.208,30.37-138.291,5.023c-16.669-5.171-4.221-23.491,1.98-23.89c6.204-0.4-13.693-1.063-7.351-17.437
			c-5.787-23.377,17.325-27.2,30.508-28.05c15.592-12.834,27.189-3.307,37.101,2.078c9.913,5.385-9.391-9.005-11.982-15.904
			c-2.594-6.894-18.987-57.917-2.314-68.559c-13.663-30.651,14.93-48.788,40.659-28.832c18.209-3.301,28.985,15.491,32.297,28.388
			c14.391-40.607,43.9-27.982,40.55-2.967c33.293-16.666-21.203,121.824-11.332,146.414c-3.54,2.28,27.192-87.206,40.816-101.192
			c0,0,18.808-38.055,23.821-9.68c-5.236,6.711,13.513-26.735,19.806-22.533c11.282-17.376,23.893,2.36,16.365,23.037
			c11.652,4.92,6.278,31.483-3.76,40.632c9.251,6.134-5.924,40.059-12.649,40.138c12.25,30.746-64.3,41.341-77.037,36.138
			c0,0,42.906,34.496,27.71,59.36c1.761,13.143,6.05,27.952-16.309,36.73c1.63,7.232,0.831,27.83-13.853,30.901
			c-6.671,23.733-28.546,18.846-34.029-11.273c3.417-12.973-5.435,39.509-22.466,37.678c-11.046,14.083-27.345,25.051-33.875,0.674
			c-46.737,33.474-71.473-9.572-26.962-54.149c0,0-50.514-4.635-5.372-40.846C206.634,510.814,307.079,478.014,326.577,480.908
			c1.015,0.151,1.811,0.397,2.362,0.751"/>
	</g>
	<g>
		<path fill="none" stroke="#A81E5D" stroke-miterlimit="10" d="M326.577,480.908c0,0,7.149,0.115-2.145-5.126
			c-12.56,0.14-145.208,30.37-138.291,5.023c-16.669-5.171-4.221-23.491,1.98-23.89c6.204-0.4-13.693-1.063-7.351-17.437
			c-5.787-23.377,17.325-27.2,30.508-28.05c15.592-12.834,27.189-3.307,37.101,2.078c9.913,5.385-9.391-9.005-11.982-15.904
			c-2.594-6.894-18.987-57.917-2.314-68.559c-13.663-30.651,14.93-48.788,40.659-28.832c18.209-3.301,28.985,15.491,32.297,28.388
			c14.391-40.607,43.9-27.982,40.55-2.967c33.293-16.666-21.203,121.824-11.332,146.414c-3.54,2.28,27.192-87.206,40.816-101.192
			c0,0,18.808-38.055,23.821-9.68c-5.236,6.711,13.513-26.735,19.806-22.533c11.282-17.376,23.893,2.36,16.365,23.037
			c11.652,4.92,6.278,31.483-3.76,40.632c9.251,6.134-5.924,40.059-12.649,40.138c12.25,30.746-64.3,41.341-77.037,36.138
			c0,0,42.906,34.496,27.71,59.36c1.761,13.143,6.05,27.952-16.309,36.73c1.63,7.232,0.831,27.83-13.853,30.901
			c-6.671,23.733-28.546,18.846-34.029-11.273c3.417-12.973-5.435,39.509-22.466,37.678c-11.046,14.083-27.345,25.051-33.875,0.674
			c-46.737,33.474-71.473-9.572-26.962-54.149c0,0-50.514-4.635-5.372-40.846C206.634,510.814,307.079,478.014,326.577,480.908
			c1.015,0.151,1.811,0.397,2.362,0.751"/>
	</g>
</g>
</svg>
