<?xml version="1.0" encoding="utf-8"?>
<!-- Generator: Adobe Illustrator 16.0.0, SVG Export Plug-In . SVG Version: 6.00 Build 0)  -->
<!DOCTYPE svg PUBLIC "-//W3C//DTD SVG 1.1//EN" "http://www.w3.org/Graphics/SVG/1.1/DTD/svg11.dtd">
<svg version="1.1" id="Layer_1" xmlns="http://www.w3.org/2000/svg" xmlns:xlink="http://www.w3.org/1999/xlink" x="0px" y="0px"
	 width="612px" height="792px" viewBox="0 0 612 792" enable-background="new 0 0 612 792" xml:space="preserve">
<g>
	<g>
		<path fill="#4656A6" d="M261.735,528.178c0,0-2.715-5.787-9.741-8.646c1.443-0.192-4.469-4.355-12.624-3.969
			c-9.475-3.077-16.382,1.91-19.177,3.506c-2.793,1.592-8.19,0.955-12,4.085c0,0-2.919-0.02-4.133,1.049
			c-1.234-1.283-21.339,0.674-21.885,2.012c0.223,1.847,3.469-7.56-1.505-0.612c-1.778,0.057,0.579-7.128,0.358-9.021
			c-1.234-1.282-2.312,4.716-2.521,6.191c-1.877-0.181-1.408-5.646-2.89-10.149c2.782,0.353-2.708-1.493-2.013,0.155
			c0.693,1.646,2.015,5.111,2.09,9.237c0.867,0.743-5.057-6.739-8.174-7.229c-1.246,0.662-1.345,0.428-2.088,1.295
			c3.551,0.86,6.976,4.276,7.214,5.277c-2.422,1.158-1.946-0.013-1.487,1.734c2.219-0.657,4.592,0.699,5.677,4.263
			c4.896,5.698,19.388,0.285,22.43,1.914c-13.478,9.603-24.784,42.3-23.884,44.206c0.004,0.334,0.045,0.581,0.125,0.736
			c-2.263-6.435,0.4-10.563-12.352-9.905c0,0,1.765-3.378,4.225-5.106c0.76-0.678,0.557-3.284-3.897,0.949
			c-0.28-3.625,3.27-8.031,2.879-9.945c0.619-2.479-3.142,3.401-4.088,4.771c-0.948,1.368,2.606-9.128,3.43-12.258
			c-3.83,0.781-4.917,13.992-6.063,14.892c-1.295-2.088-2.105-17.826-3.759-21.426c-1.407-0.378-1.166-1.449-1.407-0.378
			c0,0,4.566,21.363,1.475,27.519c-1.494-2.561-8.429-4.212-10.588-5.287c-2.735,0.643-1.421-0.188-1.662,0.884
			c-0.243,1.072,6.61,0.975,10.535,5.265c2.708,1.492,3.341,7.603,13.411,6.825c0.817,1.139,1.949,17.443,2.266,18.867
			c-6.206,10.932-29.005,57.823-94.776,100.765c-5.18,5.114,0.527,4.729,1.242,3.933c0,0,48.628-30.331,65.421-50.021
			c5.724-3.52,34.119-44.038,40.111-47.255c-3.242-2.101,8.632,8.977,7.748,11.15c-0.886,2.175-9.071,7.426-4.856,14.799
			c-2.916,5.249-4.508,7.722-7.005,10.021c0.955,2.925,7.959-7.098,8.276-9.31c2.913,0.991,4.585,1.673,6.018,3.425
			c1.594,8.062,0.708,19.417,1.349,20.641c1.424-2.901,1.924-12.87-0.124-23.651c0.681-1.674,9.477,8.344,13.535,8.438
			c0.646-1.104-5.17-4.561-11.044-9.765c0,0,5.622,2.484,7.61,0.953s-5.999-1.077-9.705-3.951c-3.618-0.692,4.258,0.563,4.239-1.785
			c-4.337-0.481-7.632-0.419-7.632-0.419c-1.049-0.774,4.451-6.144,6.007-8.045c2.471-3.676-6.052-14.361-7.211-16.785
			c1.064-9.318,8.79-16.315,9.549-25.369c-0.478-4.096,11.085-24.354,11.336-21.133c-1.542,5.225,2.675,5.2,5.984,3.023
			c0,0,5.279-1.947,6.147-1.204c0.867,0.743-0.292-1.679,0.042-1.543c0.335,0.136-4.195,0.243-4.733,0.608
			c0.222-3.42,8.92-5.146,9.95-8.628c1.312-0.83-6.824,2.546-8.75,4.24c-1.66,2.64,3.32-5.279,5.334-5.436
			c0.241-1.072-5.007,1.277-6.091,2.981c-1.084,1.703-0.732-6.346,15.044-2.457c9.486,1.131,11.036,0.201,14.228-0.449
			C256.576,532.709,262.002,533.748,261.735,528.178z"/>
	</g>
	<g>
		<path fill="#303291" stroke="#E7C21F" stroke-miterlimit="10" d="M261.735,528.178c0,0-2.715-5.787-9.741-8.646
			c1.443-0.192-4.469-4.355-12.624-3.969c-9.475-3.077-16.382,1.91-19.177,3.506c-2.793,1.592-8.19,0.955-12,4.085
			c0,0-2.919-0.02-4.133,1.049c-1.234-1.283-21.339,0.674-21.885,2.012c0.223,1.847,3.469-7.56-1.505-0.612
			c-1.778,0.057,0.579-7.128,0.358-9.021c-1.234-1.282-2.312,4.716-2.521,6.191c-1.877-0.181-1.408-5.646-2.89-10.149
			c2.782,0.353-2.708-1.493-2.013,0.155c0.693,1.646,2.015,5.111,2.09,9.237c0.867,0.743-5.057-6.739-8.174-7.229
			c-1.246,0.662-1.345,0.428-2.088,1.295c3.551,0.86,6.976,4.276,7.214,5.277c-2.422,1.158-1.946-0.013-1.487,1.734
			c2.219-0.657,4.592,0.699,5.677,4.263c4.896,5.698,19.388,0.285,22.43,1.914c-13.478,9.603-24.784,42.3-23.884,44.206
			c0.004,0.334,0.045,0.581,0.125,0.736c-2.263-6.435,0.4-10.563-12.352-9.905c0,0,1.765-3.378,4.225-5.106
			c0.76-0.678,0.557-3.284-3.897,0.949c-0.28-3.625,3.27-8.031,2.879-9.945c0.619-2.479-3.142,3.401-4.088,4.771
			c-0.948,1.368,2.606-9.128,3.43-12.258c-3.83,0.781-4.917,13.992-6.063,14.892c-1.295-2.088-2.105-17.826-3.759-21.426
			c-1.407-0.378-1.166-1.449-1.407-0.378c0,0,4.566,21.363,1.475,27.519c-1.494-2.561-8.429-4.212-10.588-5.287
			c-2.735,0.643-1.421-0.188-1.662,0.884c-0.243,1.072,6.61,0.975,10.535,5.265c2.708,1.492,3.341,7.603,13.411,6.825
			c0.817,1.139,1.949,17.443,2.266,18.867c-6.206,10.932-29.005,57.823-94.776,100.765c-5.18,5.114,0.527,4.729,1.242,3.933
			c0,0,48.628-30.331,65.421-50.021c5.724-3.52,34.119-44.038,40.111-47.255c-3.242-2.101,8.632,8.977,7.748,11.15
			c-0.886,2.175-9.071,7.426-4.856,14.799c-2.916,5.249-4.508,7.722-7.005,10.021c0.955,2.925,7.959-7.098,8.276-9.31
			c2.913,0.991,4.585,1.673,6.018,3.425c1.594,8.062,0.708,19.417,1.349,20.641c1.424-2.901,1.924-12.87-0.124-23.651
			c0.681-1.674,9.477,8.344,13.535,8.438c0.646-1.104-5.17-4.561-11.044-9.765c0,0,5.622,2.484,7.61,0.953s-5.999-1.077-9.705-3.951
			c-3.618-0.692,4.258,0.563,4.239-1.785c-4.337-0.481-7.632-0.419-7.632-0.419c-1.049-0.774,4.451-6.144,6.007-8.045
			c2.471-3.676-6.052-14.361-7.211-16.785c1.064-9.318,8.79-16.315,9.549-25.369c-0.478-4.096,11.085-24.354,11.336-21.133
			c-1.542,5.225,2.675,5.2,5.984,3.023c0,0,5.279-1.947,6.147-1.204c0.867,0.743-0.292-1.679,0.042-1.543
			c0.335,0.136-4.195,0.243-4.733,0.608c0.222-3.42,8.92-5.146,9.95-8.628c1.312-0.83-6.824,2.546-8.75,4.24
			c-1.66,2.64,3.32-5.279,5.334-5.436c0.241-1.072-5.007,1.277-6.091,2.981c-1.084,1.703-0.732-6.346,15.044-2.457
			c9.486,1.131,11.036,0.201,14.228-0.449C256.576,532.709,262.002,533.748,261.735,528.178z"/>
	</g>
</g>
<g>
	<g>
		<path fill="#79D0E9" d="M279.036,131.915c0,0-2.059-6.052,1.017-12.986c-1.174,0.862,0.197-6.237,6.339-11.617
			c4.689-8.788,13.125-9.987,16.244-10.778c3.117-0.791,6.562-4.994,11.478-5.382c0,0,2.091-2.039,3.704-2.112
			c-0.001-1.78,15.838-14.319,17.159-13.733c1.12,1.484-7.743-3.039,0.658-1.487c1.319-1.192-5.361-4.731-6.517-6.249
			c-0.001-1.779,4.937,1.793,6.11,2.71c1.228-1.432-2.901-5.042-4.96-9.314c-1.76,2.184,0.915-2.954,1.559-1.285
			c0.645,1.668,2.096,5.079,4.904,8.103c-0.109,1.137-1.033-8.362,0.871-10.876c1.357-0.387,1.267-0.625,2.402-0.516
			c-1.96,3.083-2.058,7.919-1.534,8.806c2.548-0.846,1.394-1.359,2.275,0.217c-2.055,1.066-2.822,3.69-1.133,7.009
			c0.427,7.501-13.767,13.657-14.826,16.939c16.367-2.434,47.194,13.271,47.868,15.27c0.228,0.243,0.371,0.45,0.421,0.618
			c-2.835-6.204-7.618-7.332,2.023-15.703c0,0-3.614-1.208-6.586-0.748c-1.018,0.04-2.68-1.979,3.465-2.02
			c-2.312-2.805-7.927-3.516-8.974-5.166c-2.164-1.356,4.623,0.271,6.256,0.601c1.633,0.329-8.209-4.766-10.973-6.448
			c3.3-2.094,13.246,6.667,14.696,6.518c-0.516-2.401-10.852-14.299-12.155-18.039c0.751-1.248-0.167-1.853,0.751-1.248
			c0,0,11.532,18.554,18.026,20.842c-0.698-2.88,3.149-8.88,3.959-11.154c2.416-1.434,0.894-1.121,1.811-0.516
			c0.919,0.604-4.086,5.287-3.936,11.099c-0.915,2.954,2.866,7.794-4.925,14.22c0.201,1.386,10.697,13.916,11.458,15.161
			c12.054,3.568,61.003,21.524,138.164,6.825c7.278,0.089,2.901,3.772,1.832,3.693c0,0-56.064,11.889-81.818,9.358
			c-6.563,1.437-55.124-8.047-61.672-6.208c0.878-3.761,0.011,12.453,2.155,13.405c2.146,0.952,11.686-0.944,13.765,7.29
			c5.74,1.757,8.604,2.433,11.996,2.358c1.341,2.768-10.655,0.41-12.419-0.964c-1.41,2.736-2.143,4.386-1.959,6.642
			c4.443,6.912,12.962,14.477,13.349,15.802c-3.039-1.102-10.314-7.935-16.319-17.12c-1.65-0.734-1.037,12.583-3.896,15.466
			c-1.229-0.348,0.562-6.871,1.182-14.694c0,0-2.325,5.689-4.818,5.966c-2.495,0.276,3.572-4.938,4.248-9.579
			c2.124-3.008-2.676,3.359-4.291,1.655c2.788-3.356,5.206-5.597,5.206-5.597c0.219-1.286-7.468-1.336-9.907-1.626
			c-4.329-0.933-5.604-14.542-6.45-17.091c-7.23-5.974-17.65-5.655-24.479-11.648c-2.496-3.281-24.878-9.85-22.824-7.356
			c4.734,2.693,1.682,5.601-2.213,6.329c0,0-5.151,2.261-5.263,3.398c-0.109,1.138-0.955-1.412-1.101-1.082
			c-0.147,0.33,3.188-2.736,3.831-2.845c-2.533-2.31-9.995,2.482-13.152,0.688c-1.521,0.313,6.681-2.9,9.244-3.016
			c3.024,0.75-6.056-1.499-7.613-0.213c-0.917-0.605,4.493-2.554,6.456-2.078c1.962,0.475-3.874-5.078-12.54,8.666
			c-6.048,7.396-7.809,7.802-10.559,9.547C285.896,131.599,282.707,136.112,279.036,131.915z"/>
	</g>
	<g>
		<path fill="#E81463" stroke="#E7C21F" stroke-miterlimit="10" d="M279.036,131.915c0,0-2.059-6.052,1.017-12.986
			c-1.174,0.862,0.197-6.237,6.339-11.617c4.689-8.788,13.125-9.987,16.244-10.778c3.117-0.791,6.562-4.994,11.478-5.382
			c0,0,2.091-2.039,3.704-2.112c-0.001-1.78,15.838-14.319,17.159-13.733c1.12,1.484-7.743-3.039,0.658-1.487
			c1.319-1.192-5.361-4.731-6.517-6.249c-0.001-1.779,4.937,1.793,6.11,2.71c1.228-1.432-2.901-5.042-4.96-9.314
			c-1.76,2.184,0.915-2.954,1.559-1.285c0.645,1.668,2.096,5.079,4.904,8.103c-0.109,1.137-1.033-8.362,0.871-10.876
			c1.357-0.387,1.267-0.625,2.402-0.516c-1.96,3.083-2.058,7.919-1.534,8.806c2.548-0.846,1.394-1.359,2.275,0.217
			c-2.055,1.066-2.822,3.69-1.133,7.009c0.427,7.501-13.767,13.657-14.826,16.939c16.367-2.434,47.194,13.271,47.868,15.27
			c0.228,0.243,0.371,0.45,0.421,0.618c-2.835-6.204-7.618-7.332,2.023-15.703c0,0-3.614-1.208-6.586-0.748
			c-1.018,0.04-2.68-1.979,3.465-2.02c-2.312-2.805-7.927-3.516-8.974-5.166c-2.164-1.356,4.623,0.271,6.256,0.601
			c1.633,0.329-8.209-4.766-10.973-6.448c3.3-2.094,13.246,6.667,14.696,6.518c-0.516-2.401-10.852-14.299-12.155-18.039
			c0.751-1.248-0.167-1.853,0.751-1.248c0,0,11.532,18.554,18.026,20.842c-0.698-2.88,3.149-8.88,3.959-11.154
			c2.416-1.434,0.894-1.121,1.811-0.516c0.919,0.604-4.086,5.287-3.936,11.099c-0.915,2.954,2.866,7.794-4.925,14.22
			c0.201,1.386,10.697,13.916,11.458,15.161c12.054,3.568,61.003,21.524,138.164,6.825c7.278,0.089,2.901,3.772,1.832,3.693
			c0,0-56.064,11.889-81.818,9.358c-6.563,1.437-55.124-8.047-61.672-6.208c0.878-3.761,0.011,12.453,2.155,13.405
			c2.146,0.952,11.686-0.944,13.765,7.29c5.74,1.757,8.604,2.433,11.996,2.358c1.341,2.768-10.655,0.41-12.419-0.964
			c-1.41,2.736-2.143,4.386-1.959,6.642c4.443,6.912,12.962,14.477,13.349,15.802c-3.039-1.102-10.314-7.935-16.319-17.12
			c-1.65-0.734-1.037,12.583-3.896,15.466c-1.229-0.348,0.562-6.871,1.182-14.694c0,0-2.325,5.689-4.818,5.966
			c-2.495,0.276,3.572-4.938,4.248-9.579c2.124-3.008-2.676,3.359-4.291,1.655c2.788-3.356,5.206-5.597,5.206-5.597
			c0.219-1.286-7.468-1.336-9.907-1.626c-4.329-0.933-5.604-14.542-6.45-17.091c-7.23-5.974-17.65-5.655-24.479-11.648
			c-2.496-3.281-24.878-9.85-22.824-7.356c4.734,2.693,1.682,5.601-2.213,6.329c0,0-5.151,2.261-5.263,3.398
			c-0.109,1.138-0.955-1.412-1.101-1.082c-0.147,0.33,3.188-2.736,3.831-2.845c-2.533-2.31-9.995,2.482-13.152,0.688
			c-1.521,0.313,6.681-2.9,9.244-3.016c3.024,0.75-6.056-1.499-7.613-0.213c-0.917-0.605,4.493-2.554,6.456-2.078
			c1.962,0.475-3.874-5.078-12.54,8.666c-6.048,7.396-7.809,7.802-10.559,9.547C285.896,131.599,282.707,136.112,279.036,131.915z"
			/>
	</g>
</g>
<path fill="#C97BB3" stroke="#E8E414" stroke-miterlimit="10" d="M479.22,495.353c0,0-5.866-11.922-14.947,0
	c-5.679,2.839-17.021,4.729-20.814,6.244c-5.678,1.138-11.719,0.144-14.57,1.136c-5.108,1.135-19.11,10.784-25.354,14.76
	c-0.39,0.873-5.109-1.514-5.109,3.217c-2.271,2.838-1.893,1.703-1.893,1.703c-4.353-5.678-6.623-0.758-9.271,1.702
	c0,0,3.974,19.869,5.865,22.329c5.678,8.324,5.678,8.324,0.379,14.381c-5.109,2.081,0.567,6.623,2.459,1.702
	c2.84-2.081,4.405-3.057,3.596-4.73c0-6.055,0,7.38,1.703,7.947c0.568,0.872-0.697,2.063-0.566,3.218
	c-1.893,6.812,4.729,6.244,3.974,0c0,0-1.135-0.566,0.189-2.271c2.647,2.271,5.485,0.378,2.459-2.082
	c-2.648-2.271,0.188-3.216-2.271-6.623c-2.461-3.406,3.136,0.315,3.595,0.946c1.325,2.648,6.812,0.566,2.081-2.46
	c-2.647-3.406,4.73-1.325,3.406-11.354c-1.324-2.46,11.354,9.84,30.086,0.379c-2.459,2.649,2.121,20.464,3.406,22.139
	c-4.92,4.164,16.273,9.462,16.463,11.543c0.725,1.097,3.406,3.218,3.406,3.218c-0.379,2.271,8.047-2.321,1.135-3.597
	c-3.406-2.101-2.018-2.23-4.162-4.162c-3.406-1.137,10.596,0,13.812-0.379c3.026,1.893,8.705-2.838,0.945-3.784
	c0,0-1.892-1.135-6.622,0.566c-2.081,0.19-5.866-1.701-8.325-3.216c-1.703,0.568,1.703,0.188,2.838-1.892
	c3.785-3.219-1.703-4.541-3.027-2.271c-1.324,2.271-3.784,3.218-6.055,2.081c-0.14-1.75-6.098-19.625-5.866-21.571
	c2.315-1.604,12.868-5.298,13.057-3.595c1.893-0.189,6.057,3.784,6.057,3.784c-1.326,2.838,6.055,3.596,3.973-1.135
	c0,0-1.986-0.096-1.229-2.177c0.283-0.566-0.852-1.799-1.324-0.946c-0.189-0.853-1.894-1.893-1.135-2.743
	c-1.23-0.568,3.026-0.515,3.783-0.824c1.893,0.54,4.032,3.206,5.3,3.567c0.944,0.567,2.554,0.188,4.636,3.312
	c-0.947,2.648,9.744,1.419,2.838-1.704c-0.758-0.188-2.271-1.607-2.271-1.607s-1.42-0.283-2.082-0.946
	c-1.229,0.095-1.122-1.328-2.081-1.797c-1.419,0.283,2.364-0.663,5.486-1.514c4.163,0.851,5.866-4.447,0.095-3.122
	c-1.718,0.42-4.258,1.04-4.258,1.04c-1.79,0.348-4.541-0.378-5.771-1.419c-2.673-0.026-5.108-0.189-6.149-0.379
	c-0.851-1.607-1.986-1.892-3.217-3.406c1.515-1.418,7.854-3.878,7.38-6.148c1.514-0.568,2.935-4.068,3.689-5.961
	c0.852-0.567,0.852-0.567,2.271-2.365c0.283-1.229,8.361-2.838,9.762-7.758c2.728-3.027-0.489-9.367-3.989-10.219
	C482.91,496.582,480.758,495.231,479.22,495.353z"/>
<path fill="#79C6BB" stroke="#E8E414" stroke-miterlimit="10" d="M241.262,335.767c0,0-6.513-11.582,8.456-12.327
	c5.552-3.077,13.527-11.362,16.922-13.632c4.15-4.04,6.747-9.584,9.179-11.374c3.825-3.571,19.704-9.659,26.514-12.56
	c0.94,0.173,1.643-5.07,5.544-2.395c3.624-0.268,2.475-0.597,2.475-0.597c-2.221-6.8,3.121-5.89,6.648-6.683
	c0,0,14.137,14.516,15.095,17.467c3.653,9.392,3.653,9.392,11.646,8.447c4.605-3.036,5.142,4.215,0.013,2.99
	c-3.322,1.165-5.012,1.904-5.935,0.29c-4.993-3.425,6.086,4.175,5.591,5.899c0.396,0.963,2.097,0.592,2.974,1.353
	c6.688,2.293,2.475,7.433-2.247,3.276c0,0,0.174-1.256-1.979-1.127c0.375,3.467-2.791,4.737-3.107,0.85
	c-0.374-3.469-2.76-1.663-4.178-5.618c-1.417-3.956-1.514,2.765-1.252,3.501c1.434,2.59-3.387,5.937-3.206,0.324
	c-1.312-4.111-3.771,3.15-11.29-3.614c-1.279-2.483,1.691,14.929-16.706,25.024c3.575-0.529,15.675,13.324,16.329,15.332
	c6.217-1.702-1.402,18.771,0.207,20.105c0.493,1.217,0.726,4.628,0.726,4.628c2.087,0.972-6.466,5.323-3.605-1.098
	c0.192-3.997-0.699-2.927-1.078-5.786c0.989-3.453-5.994,8.736-8.126,11.176c-0.153,3.566-7.265,5.572-3.657-1.361
	c0,0,0.135-2.201,4.214-5.141c1.335-1.608,1.916-5.8,2.059-8.684c1.433-1.084-0.809,1.51-3.164,1.27
	c-4.795,1.301-2.781-3.973-0.161-3.781c2.622,0.192,4.794-1.301,5.142-3.816c-1.365-1.104-12.735-16.128-14.471-17.039
	c-2.634,1.001-11.648,7.614-10.35,8.733c-1.227,1.452-0.305,7.134-0.305,7.134c3.09,0.512-0.461,7.027-3.184,2.635
	c0,0,1.045-1.691-1.098-2.246c-0.629-0.086-1.003-1.719-0.033-1.627c-0.595-0.639-0.488-2.631-1.62-2.488
	c0.228-1.336-2.136,2.207-2.819,2.654c-0.625,1.866,0.362,5.139-0.057,6.389c-0.065,1.101-1.287,2.213,0.11,5.695
	c2.72,0.717-4.343,8.839-3.011,1.377c0.273-0.731-0.043-2.781-0.043-2.781s0.57-1.331,0.397-2.252
	c0.774-0.961-0.46-1.678-0.304-2.733c1.035-1.009-1.885,1.575-4.353,3.669c-1.653,3.914-6.985,2.321-2.628-1.688
	c1.317-1.179,3.266-2.923,3.266-2.923c1.3-1.279,2.258-3.959,2.095-5.562c1.491-2.22,2.733-4.32,3.167-5.285
	c-0.845-1.611-0.436-2.709-0.99-4.58c-2.025,0.447-7.64,4.282-9.244,2.608c-1.325,0.926-5.015,0.117-7.003-0.33
	c-0.949,0.381-0.949,0.381-3.235,0.535c-1.175-0.463-7.07,5.289-11.92,3.662c-4.038,0.535-7.446-5.703-6.169-9.071
	C240.188,339.505,240.292,336.966,241.262,335.767z"/>
</svg>
