<?xml version="1.0" encoding="utf-8"?>
<!-- Generator: Adobe Illustrator 16.0.0, SVG Export Plug-In . SVG Version: 6.00 Build 0)  -->
<!DOCTYPE svg PUBLIC "-//W3C//DTD SVG 1.1//EN" "http://www.w3.org/Graphics/SVG/1.1/DTD/svg11.dtd">
<svg version="1.1" id="Layer_1" xmlns="http://www.w3.org/2000/svg" xmlns:xlink="http://www.w3.org/1999/xlink" x="0px" y="0px"
	 width="612px" height="792px" viewBox="0 0 612 792" enable-background="new 0 0 612 792" xml:space="preserve">
<path fill="#FFFFFF" stroke="#231F20" stroke-miterlimit="10" d="M562,534.857c0,3.865-3.134,7-7,7H60.429c-3.866,0-7-3.135-7-7
	V40.286c0-3.866,3.134-7,7-7H555c3.866,0,7,3.134,7,7V534.857z"/>
<path fill="#FFFFFF" stroke="#231F20" stroke-miterlimit="10" d="M562,175.994c0,3.866-3.134,7-7,7H60.429c-3.866,0-7-3.134-7-7
	V41.28c0-3.866,3.134-7,7-7H555c3.866,0,7,3.134,7,7V175.994z"/>
<path fill="#FFFFFF" stroke="#231F20" stroke-miterlimit="10" d="M562,743.686c0,3.725-3.134,6.743-7,6.743H313
	c-3.866,0-7-3.019-7-6.743V415.743c0-3.725,3.134-6.743,7-6.743h242c3.866,0,7,3.019,7,6.743V743.686z"/>
<rect x="306" y="479" fill="#FFFFFF" stroke="#231F20" stroke-miterlimit="10" width="256" height="204.285"/>
<rect x="307.715" y="541.857" fill="#FFFFFF" stroke="#231F20" stroke-miterlimit="10" width="254.285" height="74.285"/>
<circle fill="#FFFFFF" stroke="#231F20" stroke-miterlimit="10" cx="171.864" cy="666.917" r="105.714"/>
<path fill="#FFFFFF" stroke="#231F20" stroke-miterlimit="10" d="M562,357.714c0,3.866-3.134,7-7,7H60.429c-3.866,0-7-3.134-7-7
	V237.428c0-3.866,3.134-7,7-7H555c3.866,0,7,3.134,7,7V357.714z"/>
<path fill="#FFFFFF" stroke="#231F20" stroke-miterlimit="10" d="M204.857,357.714c0,3.866-3.134,7-7,7H60.429c-3.866,0-7-3.134-7-7
	V237.428c0-3.866,3.134-7,7-7h137.428c3.866,0,7,3.134,7,7V357.714z"/>
</svg>
